<svg xmlns="http://www.w3.org/2000/svg" viewBox="0 0 28 28"><path fill="#1d1d1d" fill-rule="evenodd" d="M17.736 25.39c0 .45-.366.816-.815.816H11.08a.818.818 0 0 1-.816-.817V12.43a3.78 3.78 0 0 1 2.367-3.476c.001 0 .002 0 .003-.002a.525.525 0 0 0 .126-.082c.012-.01.027-.015.038-.025.022-.023.035-.052.053-.079.018-.026.042-.05.054-.08.006-.014.005-.03.01-.045a.52.52 0 0 0 .03-.147V1.96c0-.09.086-.165.188-.165h1.736c.101 0 .187.075.187.164V8.49l.001.005c0 .05.014.098.03.145.004.015.003.032.01.046.011.03.034.051.051.077.018.027.032.058.055.082.011.01.026.015.036.024.04.033.08.063.128.083l.004.002a3.779 3.779 0 0 1 2.366 3.476v12.96zm-1.68-17.21c1.634.792 2.68 2.417 2.68 4.25v12.96a1.818 1.818 0 0 1-1.815 1.816H11.08a1.819 1.819 0 0 1-1.816-1.817V12.43c0-1.832 1.046-3.457 2.681-4.25V1.96c0-.643.533-1.165 1.188-1.165h1.736c.654 0 1.187.522 1.187 1.164V8.18zm-3.673 9.555v-4.647h3.235v4.647h-3.235zm3.735-5.647h-4.236a.5.5 0 0 0-.5.5v5.647a.5.5 0 0 0 .5.5h4.236a.5.5 0 0 0 .5-.5v-5.647a.5.5 0 0 0-.5-.5z"></path></svg>