<svg xmlns="http://www.w3.org/2000/svg" viewBox="0 0 28 28"><path fill="#1d1d1d" fill-rule="evenodd" d="M18.189 20.318c4.538-1.67 7.43-5.58 8.079-6.536-.505-1.125-2.991-6.039-8.35-7.765a8.234 8.234 0 0 1 4.309 7.233c0 3.006-1.625 5.632-4.038 7.068zM2.366 14.65c.315.403 1.649 1.838 2.389 2.425.83.658 2.383 1.788 4.232 2.683-1.95-1.505-3.214-3.859-3.214-6.508a8.232 8.232 0 0 1 4.308-7.232c-5.36 1.726-7.845 6.641-8.35 7.765.128.188.342.492.635.867zm4.407-1.4c0 3.985 3.242 7.227 7.228 7.227 3.984 0 7.226-3.242 7.226-7.227 0-3.985-3.242-7.227-7.226-7.227-3.986 0-7.228 3.242-7.228 7.227zm-.245 12.383a1.948 1.948 0 0 0 1.946-1.946c0-.745-1.07-2.556-1.946-3.842-.877 1.286-1.946 3.098-1.946 3.842 0 1.073.873 1.946 1.946 1.946zM27.3 13.654a.5.5 0 0 1-.041.442c-.202.326-5.028 7.993-13.258 7.993-2.06 0-4.14-.75-5.904-1.659.67 1.095 1.377 2.44 1.377 3.257a2.949 2.949 0 0 1-2.946 2.946 2.949 2.949 0 0 1-2.946-2.946c0-1.22 1.568-3.61 2.252-4.595a25.526 25.526 0 0 1-1.7-1.233c-.841-.668-2.222-2.166-2.556-2.594-.54-.692-.826-1.15-.837-1.169a.5.5 0 0 1-.041-.442C.735 13.561 4.362 4.41 14 4.41c9.639 0 13.265 9.152 13.3 9.244zm-11.289-.228a2.023 2.023 0 0 0-2.015-2.195c-.473 0-.927.164-1.294.472a2.004 2.004 0 0 0-.713 1.371 2.007 2.007 0 0 0 .464 1.474c.347.413.834.667 1.372.713a1.99 1.99 0 0 0 1.473-.465c.413-.347.666-.833.713-1.37zm-1.748-3.184a3.022 3.022 0 0 1 1.679 5.32 2.998 2.998 0 0 1-2.203.696 3.002 3.002 0 0 1-2.051-1.067 2.998 2.998 0 0 1-.696-2.203 3.004 3.004 0 0 1 1.067-2.05 2.983 2.983 0 0 1 2.204-.696z"></path></svg>