<svg xmlns="http://www.w3.org/2000/svg" viewBox="0 0 28 28"><path fill="#1d1d1d" fill-rule="evenodd" d="M23.596 18.608V5.483c0-.564-.605-1.042-1.322-1.042h-2.057v3.21a.5.5 0 0 1-.5.5h-3.35a.5.5 0 0 1-.5-.5V4.44h-3.744v3.21a.5.5 0 0 1-.5.5h-3.34a.5.5 0 0 1-.5-.5V4.44H5.726c-.717 0-1.322.478-1.322 1.042v13.125c0 1.785 5.792 4.986 9.587 6.658 4.058-1.942 9.605-5.225 9.605-6.658zM22.274 3.44c1.28 0 2.322.916 2.322 2.042v13.125c0 2.614-8.649 6.839-10.383 7.66a.496.496 0 0 1-.413.007c-1.736-.754-10.396-4.668-10.396-7.667V5.483c0-1.126 1.042-2.042 2.322-2.042h2.557a.5.5 0 0 1 .5.5v3.21h2.34V3.94a.5.5 0 0 1 .5-.5h4.744a.5.5 0 0 1 .5.5v3.21h2.35V3.94a.5.5 0 0 1 .5-.5h2.557zM19.76 18.307c.067-.027.099-.057.104-.066l.003-.747c-.46.086-.962.161-1.482.23l-.008 1.043c.486-.138.956-.289 1.383-.46zm-2.893 1.147l.447-.062.114-8.356c0-.027-.026-.05-.061-.056l-.445-.067-.087.054-.055 8.433s.085.054.087.054zm-2.861.074c.595.002 1.192-.049 1.774-.13v-.004l.008-1.389c-.534.033-1.07.067-1.622.067h-.15a25.353 25.353 0 0 1-1.848-.097l-.008 1.39c.601.096 1.217.16 1.845.163zm-2.934-.108l.088-.054.053-8.434c0-.005 0-.02-.017-.035l-.515.043-.114 8.358.505.122zm-2.963-1.109c.008-.03.061.008.159.04.41.133.85.253 1.303.366l.006-1.049a40.52 40.52 0 0 1-1.32-.18c-.055-.01-.095-.032-.146-.044l-.002.867zm.2-6.397a.452.452 0 0 0-.18.093l-.004.815c.056-.013.103-.036.162-.045.414-.06.869-.11 1.324-.16l.006-1.054a20.56 20.56 0 0 0-1.307.351zm-.188 4.53c.003-.04.097.024.29.054.368.058.774.107 1.172.157l.02-3.03c-.4.045-.806.09-1.172.142-.197.03-.288.096-.309.116l-.004 1.176.002 1.384zm7.715-5.487a12.07 12.07 0 0 0-1.774-.15 13.92 13.92 0 0 0-1.848.142l-.01 1.373c.606-.04 1.222-.066 1.849-.06a25.69 25.69 0 0 1 1.773.09l.009-1.392v-.003zm-3.639 2.38l-.021 3.638a24.69 24.69 0 0 0 1.845.097c.6.006 1.194-.019 1.774-.058l.024-3.663a24.38 24.38 0 0 0-1.772-.089 24.187 24.187 0 0 0-1.85.074zm7.696-1.21c-.003.02-.034-.008-.093-.032a14.48 14.48 0 0 0-1.377-.477l-.006 1.044c.518.074 1.017.155 1.473.246l.003-.78zm-1.483 1.544l-.02 3.044c.454-.062.89-.128 1.294-.204.122-.023.177-.07.189-.084l.006-1.24.003-1.249c0 .026-.058-.023-.181-.048a25.387 25.387 0 0 0-1.291-.219zm1.776-2.499c.44.184.712.55.708.952l-.012 1.82-.009 1.22-.02 3.13c-.002.402-.279.763-.72.941-.584.234-1.229.437-1.91.613a1.054 1.054 0 0 1-.774.535l-.445.062c-.05.007-.1.01-.15.01-.172 0-.333-.053-.484-.129l-.006.002c-.739.133-1.508.2-2.288.2h-.076a12.977 12.977 0 0 1-2.424-.24 1.068 1.068 0 0 1-.49.133 1.29 1.29 0 0 1-.163-.012l-.446-.068a1.064 1.064 0 0 1-.774-.562 21.38 21.38 0 0 1-1.745-.478c-.526-.17-.851-.544-.85-.973l.042-6.407c.005-.429.335-.798.862-.962.55-.17 1.14-.322 1.75-.456.159-.287.436-.505.78-.553l.448-.062c.225-.033.44.03.636.131a13.216 13.216 0 0 1 4.805.014c.006.001.012.006.018.007.194-.092.401-.147.622-.116l.447.068c.343.052.61.264.765.544.677.183 1.32.394 1.902.636z"></path></svg>