<svg xmlns="http://www.w3.org/2000/svg" viewBox="0 0 20 20"><g><g><path fill="#1e1e1e" d="M17.4,9.12a.37.37,0,0,0,.36-.37V7.45a.22.22,0,0,0,0-.08v0l-.05-.07,0,0-.07,0-.05,0L6.64,3.68a.31.31,0,0,0-.19,0A5.75,5.75,0,0,0,2.53,7.34a.21.21,0,0,0,0,.11v8a.36.36,0,0,0,.36.37H17.38a.37.37,0,0,0,.37-.37V11.62a.37.37,0,0,0-.35-.37,1.07,1.07,0,0,1,0-2.13ZM6.52,4.39,15,7.12H3.41A5,5,0,0,1,6.52,4.39ZM17,11.93v3.22H3.23V7.85H17v.58a1.8,1.8,0,0,0,0,3.5ZM5.76,10.2a.82.82,0,0,0,.81-.82.81.81,0,0,0-.81-.81h0a.82.82,0,0,0-.82.81A.82.82,0,0,0,5.76,10.2Zm7.59-.08a.82.82,0,1,0,.84.82.82.82,0,0,0-.84-.82Zm1.82,4.59a.62.62,0,1,0-.61-.62A.62.62,0,0,0,15.17,14.71ZM8.87,11a1.47,1.47,0,1,0,1.46,1.46A1.48,1.48,0,0,0,8.87,11Z"></path></g></g></svg>