<svg xmlns="http://www.w3.org/2000/svg" viewBox="0 0 20 20"><path fill="#1d1d1d" d="M9.54,8.37A.51.51,0,0,1,9.07,8,7.14,7.14,0,0,0,5.73,4a.5.5,0,0,1-.15-.69.51.51,0,0,1,.7-.14A8,8,0,0,1,10,7.7a.49.49,0,0,1-.3.64A.47.47,0,0,1,9.54,8.37Z"></path><path fill="#1d1d1d" d="M7.69,9.46H7.61a.5.5,0,0,1-.42-.57A3.07,3.07,0,0,1,8.26,7,.5.5,0,0,1,9,7a.49.49,0,0,1,0,.7A2.1,2.1,0,0,0,8.18,9,.49.49,0,0,1,7.69,9.46Z"></path><path fill="#1d1d1d" d="M9.1,14.69a2,2,0,0,1-.27-3.94,1.93,1.93,0,0,1,1.47.38,2,2,0,0,1,.77,1.31,2,2,0,0,1-.38,1.47,2,2,0,0,1-1.31.76A1.32,1.32,0,0,1,9.1,14.69Zm0-3H9a1,1,0,1,0,.27,1.94,1,1,0,0,0,.65-.38,1,1,0,0,0,.19-.72h0a1,1,0,0,0-.38-.64A1,1,0,0,0,9.11,11.73Z"></path><path fill="#1d1d1d" d="M12,14.28A2,2,0,1,1,14,12h0a2,2,0,0,1-.39,1.47,2,2,0,0,1-1.3.77Zm0-3h-.13a1,1,0,1,0,.27,1.94A1,1,0,0,0,12,11.32Z"></path><path fill="#1d1d1d" d="M10.22,11.94a2,2,0,0,1-2-1.71A2,2,0,0,1,10,8a2,2,0,0,1,2.23,1.69,2,2,0,0,1-.38,1.47,2,2,0,0,1-1.31.77Zm0-3h-.14a.92.92,0,0,0-.64.38,1,1,0,0,0-.19.73,1,1,0,0,0,1.11.84,1,1,0,0,0,.64-.39.94.94,0,0,0,.19-.72h0A1,1,0,0,0,10.22,9Z"></path><path fill="#1d1d1d" d="M13.2,11.36a2,2,0,1,1,2-2.26h0a2,2,0,0,1-.38,1.47,2,2,0,0,1-1.31.77Zm0-3h-.14a1,1,0,0,0-.65.39,1,1,0,0,0-.19.72,1,1,0,0,0,.38.65,1,1,0,0,0,1.57-.92A1,1,0,0,0,13.21,8.39Z"></path><path fill="#1d1d1d" d="M10.93,17.05a1.9,1.9,0,0,1-1.19-.4A1.92,1.92,0,0,1,9,15.34a2,2,0,0,1,1.69-2.23,1.93,1.93,0,0,1,1.47.38,2,2,0,0,1,.77,1.31h0A2,2,0,0,1,11.21,17Zm0-3H10.8A1,1,0,0,0,10,15.21a1,1,0,0,0,1.11.83,1,1,0,0,0,.65-.38,1,1,0,0,0,.19-.72h0a1,1,0,0,0-.38-.64A1,1,0,0,0,10.94,14.09Z"></path><path fill="#1d1d1d" d="M6.77,12.39a2,2,0,1,1,2-2.26h0a2,2,0,0,1-1.69,2.24Zm0-3H6.64a1,1,0,0,0-.84,1.11,1,1,0,0,0,.38.65,1,1,0,0,0,.73.19,1,1,0,0,0,.84-1.11h0A1,1,0,0,0,6.77,9.42Z"></path><path fill="#1d1d1d" d="M9.5,6.07A2.74,2.74,0,0,1,8.94,6a.49.49,0,0,1-.4-.43,2.9,2.9,0,0,1,.91-2.41,2.83,2.83,0,0,1,2.47-.69.51.51,0,0,1,.41.44,2.87,2.87,0,0,1-.91,2.4A2.83,2.83,0,0,1,9.5,6.07Zm1.83-2.65a1.86,1.86,0,0,0-1.8,1.65,1.88,1.88,0,0,0,1.21-.48A1.84,1.84,0,0,0,11.33,3.42Z"></path></svg>