<svg xmlns="http://www.w3.org/2000/svg"  viewBox="0 0 20 20"><g><path fill="#1d1d1d" d="M10.21,16.61a.37.37,0,0,1-.31-.15L6.35,12.11a5.33,5.33,0,0,1-1.57-3.8,5.43,5.43,0,0,1,9.27-3.83h0a5.41,5.41,0,0,1,0,7.66l-3.53,4.32A.37.37,0,0,1,10.21,16.61Zm0-12.91a4.61,4.61,0,0,0-3.27,7.87l3.27,4,3.24-4a4.61,4.61,0,0,0,0-6.55h0A4.62,4.62,0,0,0,10.21,3.7Zm0,7.33a2.89,2.89,0,0,1-2.06-.85h0a2.92,2.92,0,0,1,0-4.12,3,3,0,0,1,4.12,0,2.91,2.91,0,0,1-2.06,5Zm0-5a2.11,2.11,0,0,0-1.49,3.6h0a2.15,2.15,0,0,0,3,0A2.11,2.11,0,0,0,10.21,6Z"></path></g></svg>