<svg xmlns="http://www.w3.org/2000/svg" viewBox="0 0 20 20"><g><path fill="#1e1e1e" d="M9.85,17a.48.48,0,0,1-.48-.49V12.89a.48.48,0,0,1,1,0v3.66A.48.48,0,0,1,9.85,17Z"></path><path fill="#1e1e1e" d="M9.85,13.37a.53.53,0,0,1-.3-.09l-.12-.09A15.3,15.3,0,0,1,6.62,10.9,4.46,4.46,0,0,1,6,7.17c.22-1.22.7-3.35.73-3.44a.48.48,0,0,1,.47-.38h5.4a.48.48,0,0,1,.47.38c0,.09.51,2.22.73,3.44a4.49,4.49,0,0,1-.67,3.74,16,16,0,0,1-2.82,2.29l-.12.08A.5.5,0,0,1,9.85,13.37Zm-2.32-9c-.15.68-.47,2.13-.63,3a3.6,3.6,0,0,0,.47,3,13.89,13.89,0,0,0,2.48,2,13.89,13.89,0,0,0,2.48-2,3.6,3.6,0,0,0,.47-3c-.16-.89-.48-2.34-.63-3Z"></path><path fill="#1e1e1e" d="M12.32,17H7.38a.49.49,0,1,1,0-1h4.94a.49.49,0,1,1,0,1Z"></path><path fill="#1e1e1e" d="M13.36,9h-7a.49.49,0,0,1,0-1h7a.49.49,0,0,1,0,1Z"></path></g></svg>