<?xml version="1.0" encoding="iso-8859-1"?>
<!-- Generator: Adobe Illustrator 18.0.0, SVG Export Plug-In . SVG Version: 6.00 Build 0)  -->
<!DOCTYPE svg PUBLIC "-//W3C//DTD SVG 1.1//EN" "http://www.w3.org/Graphics/SVG/1.1/DTD/svg11.dtd">
<svg version="1.1" id="Capa_1" xmlns="http://www.w3.org/2000/svg" xmlns:xlink="http://www.w3.org/1999/xlink" x="0px" y="0px"
	 viewBox="0 0 411.044 411.044" style="enable-background:new 0 0 411.044 411.044;" xml:space="preserve">
<g>
	<g>
		<path d="M56.91,286.577h28.809c4.142,0,7.5-3.358,7.5-7.5v-38.41c0-4.143-3.358-7.5-7.5-7.5H56.91c-4.142,0-7.5,3.357-7.5,7.5
			v38.41C49.41,283.219,52.768,286.577,56.91,286.577z M64.41,248.166h13.809v23.41H64.41V248.166z"/>
		<path d="M56.91,349.053h28.809c4.142,0,7.5-3.357,7.5-7.5v-38.41c0-4.143-3.358-7.5-7.5-7.5H56.91c-4.142,0-7.5,3.357-7.5,7.5
			v38.41C49.41,345.696,52.768,349.053,56.91,349.053z M64.41,310.643h13.809v23.41H64.41V310.643z"/>
		<path d="M325.325,286.577h28.809c4.142,0,7.5-3.358,7.5-7.5v-38.41c0-4.143-3.358-7.5-7.5-7.5h-28.809c-4.142,0-7.5,3.357-7.5,7.5
			v38.41C317.825,283.219,321.183,286.577,325.325,286.577z M332.825,248.166h13.809v23.41h-13.809V248.166z"/>
		<path d="M325.325,349.053h28.809c4.142,0,7.5-3.357,7.5-7.5v-38.41c0-4.143-3.358-7.5-7.5-7.5h-28.809c-4.142,0-7.5,3.357-7.5,7.5
			v38.41C317.825,345.696,321.183,349.053,325.325,349.053z M332.825,310.643h13.809v23.41h-13.809V310.643z"/>
		<path d="M404.502,213.597l-98.085-12.65v-29.305l15.442,8.046c1.107,0.577,2.292,0.85,3.459,0.85c2.707,0,5.32-1.47,6.658-4.036
			c1.914-3.674,0.488-8.203-3.186-10.117l-115.769-60.319V43.111c0-2.313-1.066-4.495-2.891-5.916
			c-1.824-1.421-4.201-1.921-6.444-1.356l-57.053,14.394c-3.332,0.841-5.666,3.837-5.666,7.272v38.717
			c0,2.313,1.067,4.495,2.891,5.917c1.331,1.036,2.956,1.583,4.609,1.583c0.612,0,49.553-12.269,49.553-12.269v14.614
			L82.253,166.386c-3.674,1.914-5.1,6.443-3.186,10.117c1.337,2.566,3.951,4.036,6.658,4.036c1.167,0,2.353-0.273,3.459-0.85
			l15.442-8.046v29.305l-98.084,12.65c-4.108,0.53-7.009,4.29-6.479,8.397c0.488,3.783,3.714,6.542,7.429,6.542
			c0.319,0,15.512-1.938,15.512-1.938v141.334c0,4.143,3.358,7.5,7.5,7.5h350.037c4.142,0,7.5-3.357,7.5-7.5V226.599
			c0,0,15.192,1.938,15.512,1.938c3.715,0,6.941-2.759,7.429-6.542C411.511,217.887,408.61,214.127,404.502,213.597z
			 M155.969,86.593V63.347l42.053-10.609v23.244L155.969,86.593z M37.996,224.665l66.63-8.594v144.361H38.003V224.816
			C38.003,224.765,37.997,224.716,37.996,224.665z M119.626,163.827l85.896-44.755l85.896,44.755v196.606h-50.791v-34.449
			c0-4.143-3.358-7.5-7.5-7.5h-55.211c-4.142,0-7.5,3.357-7.5,7.5v34.449h-50.79V163.827z M185.416,333.484h12.605v26.949h-12.605
			V333.484z M213.021,360.433v-26.949h12.606v26.949H213.021z M373.041,224.816v135.617h-66.623V216.072l66.63,8.594
			C373.047,224.716,373.041,224.765,373.041,224.816z"/>
		<path d="M141.322,240.993h28.808c4.142,0,7.5-3.357,7.5-7.5v-38.408c0-4.143-3.358-7.5-7.5-7.5h-28.808
			c-4.142,0-7.5,3.357-7.5,7.5v38.408C133.822,237.635,137.18,240.993,141.322,240.993z M148.822,202.584h13.808v23.408h-13.808
			V202.584z"/>
		<path d="M240.912,240.993h28.809c4.142,0,7.5-3.357,7.5-7.5v-38.408c0-4.143-3.358-7.5-7.5-7.5h-28.809
			c-4.142,0-7.5,3.357-7.5,7.5v38.408C233.412,237.635,236.77,240.993,240.912,240.993z M248.412,202.584h13.809v23.408h-13.809
			V202.584z"/>
		<path d="M191.117,240.993h28.808c4.142,0,7.5-3.357,7.5-7.5v-38.408c0-4.143-3.358-7.5-7.5-7.5h-28.808
			c-4.142,0-7.5,3.357-7.5,7.5v38.408C183.617,237.635,186.975,240.993,191.117,240.993z M198.617,202.584h13.808v23.408h-13.808
			V202.584z"/>
		<path d="M177.63,298.281v-38.409c0-4.143-3.358-7.5-7.5-7.5h-28.808c-4.142,0-7.5,3.357-7.5,7.5v38.409c0,4.142,3.358,7.5,7.5,7.5
			h28.808C174.272,305.781,177.63,302.423,177.63,298.281z M162.63,290.781h-13.808v-23.409h13.808V290.781z"/>
		<path d="M240.912,305.781h28.809c4.142,0,7.5-3.358,7.5-7.5v-38.409c0-4.143-3.358-7.5-7.5-7.5h-28.809
			c-4.142,0-7.5,3.357-7.5,7.5v38.409C233.412,302.423,236.77,305.781,240.912,305.781z M248.412,267.371h13.809v23.409h-13.809
			V267.371z"/>
		<path d="M191.117,305.781h28.808c4.142,0,7.5-3.358,7.5-7.5v-38.409c0-4.143-3.358-7.5-7.5-7.5h-28.808
			c-4.142,0-7.5,3.357-7.5,7.5v38.409C183.617,302.423,186.975,305.781,191.117,305.781z M198.617,267.371h13.808v23.409h-13.808
			V267.371z"/>
	</g>
</g>
<g>
</g>
<g>
</g>
<g>
</g>
<g>
</g>
<g>
</g>
<g>
</g>
<g>
</g>
<g>
</g>
<g>
</g>
<g>
</g>
<g>
</g>
<g>
</g>
<g>
</g>
<g>
</g>
<g>
</g>
</svg>
