<?xml version="1.0" encoding="iso-8859-1"?>
<!-- Generator: Adobe Illustrator 19.0.0, SVG Export Plug-In . SVG Version: 6.00 Build 0)  -->
<svg version="1.1" id="Layer_1" xmlns="http://www.w3.org/2000/svg" xmlns:xlink="http://www.w3.org/1999/xlink" x="0px" y="0px"
	 viewBox="0 0 512.001 512.001" style="enable-background:new 0 0 512.001 512.001;" xml:space="preserve">
<g>
	<g>
		<path d="M495.574,57.342h-82.131L360.905,4.805c-2.113-2.112-4.977-3.298-7.964-3.298c-2.987,0-5.852,1.186-7.964,3.298
			L292.44,57.342h-84.212c-6.22,0-11.262,5.042-11.262,11.262v21.663c19.01,11.54,31.277,32.316,31.392,55.238l0.019,3.826
			l13.794-8.565c11.472-7.124,25.109-7.836,36.736-3.131l62.4-27.016c14.837-6.425,32.081,0.395,38.505,15.238
			c6.426,14.841-0.396,32.081-15.237,38.506l-63.872,27.653c-3.203,7.128-8.491,13.413-15.631,17.846
			c-9.805,6.087-62.155,38.592-72.055,44.739c-5.049,3.135-10.519,5.026-16.052,5.763v21.193c0,6.22,5.042,11.262,11.262,11.262
			h287.346c6.22,0,11.262-5.042,11.262-11.262V68.605h0.001C506.837,62.385,501.794,57.342,495.574,57.342z M324.295,57.341
			l28.645-28.645l28.645,28.645H324.295z"/>
	</g>
</g>
<g>
	<g>
		<path d="M363.276,133.017c-2.471-5.708-9.103-8.332-14.809-5.861l-52.958,22.929c4.83,6.12,7.739,13.307,8.551,20.843
			l53.356-23.101C363.123,145.357,365.748,138.726,363.276,133.017z"/>
	</g>
</g>
<g>
	<g>
		<path d="M108.721,0C85.447,0,66.58,18.867,66.58,42.141c0,23.396,19.025,42.14,42.141,42.14c23.218,0,42.141-18.826,42.141-42.141
			C150.862,18.867,131.994,0,108.721,0z"/>
	</g>
</g>
<g>
	<g>
		<path d="M280.896,164.59c-5.924-9.539-18.458-12.473-27.999-6.549l-41.181,25.568l-0.191-38.019
			c-0.133-26.399-21.719-47.875-48.118-47.875c-59.365,0-59.762,0-109.374,0c-26.399,0-47.985,21.477-48.118,47.875l-0.75,149.38
			c-0.057,11.229,9.001,20.379,20.23,20.435c0.036,0,0.069,0,0.105,0c11.182,0,20.275-9.037,20.331-20.231l0.751-149.379
			c0.011-2.224,1.82-4.019,4.045-4.013s4.023,1.81,4.023,4.035c0.001,48.59,0.009,319.557,0.009,341.785
			c0,13.476,10.923,24.4,24.4,24.4c13.477,0,24.4-10.923,24.4-24.4v-195.03h10.536V487.6c0,13.476,10.923,24.4,24.4,24.4
			s24.4-10.923,24.4-24.4c0-319.389-0.434-142.831-0.442-343.495c0-2.392,1.939-4.33,4.329-4.331
			c2.392-0.001,4.332,1.936,4.333,4.328c0,0.518-0.048,1.08-0.152,1.692l0.374,74.361c0.037,7.363,4.051,14.13,10.495,17.692
			c6.442,3.563,14.308,3.365,20.564-0.52l72.053-44.738C283.888,186.666,286.82,174.13,280.896,164.59z"/>
	</g>
</g>
<g>
</g>
<g>
</g>
<g>
</g>
<g>
</g>
<g>
</g>
<g>
</g>
<g>
</g>
<g>
</g>
<g>
</g>
<g>
</g>
<g>
</g>
<g>
</g>
<g>
</g>
<g>
</g>
<g>
</g>
</svg>
