<?xml version="1.0" encoding="UTF-8" standalone="no"?>
<!-- Created with Inkscape (http://www.inkscape.org/) -->

<svg
   width="163.81522mm"
   height="156.72934mm"
   viewBox="0 0 163.81522 156.72934"
   version="1.1"
   id="svg975"
   inkscape:version="1.1 (c68e22c387, 2021-05-23)"
   sodipodi:docname="tinytable_logo.svg"
   xmlns:inkscape="http://www.inkscape.org/namespaces/inkscape"
   xmlns:sodipodi="http://sodipodi.sourceforge.net/DTD/sodipodi-0.dtd"
   xmlns="http://www.w3.org/2000/svg"
   xmlns:svg="http://www.w3.org/2000/svg">
  <sodipodi:namedview
     id="namedview977"
     pagecolor="#ffffff"
     bordercolor="#666666"
     borderopacity="1.0"
     inkscape:pageshadow="2"
     inkscape:pageopacity="0.0"
     inkscape:pagecheckerboard="0"
     inkscape:document-units="mm"
     showgrid="false"
     inkscape:snap-global="false"
     inkscape:zoom="0.35466841"
     inkscape:cx="-88.815353"
     inkscape:cy="315.78792"
     inkscape:window-width="1280"
     inkscape:window-height="778"
     inkscape:window-x="-6"
     inkscape:window-y="-6"
     inkscape:window-maximized="1"
     inkscape:current-layer="layer1" />
  <defs
     id="defs972" />
  <g
     inkscape:label="Layer 1"
     inkscape:groupmode="layer"
     id="layer1"
     transform="translate(-23.122464,-65.774989)">
    <path
       style="fill:#1f3b4d;fill-opacity:1;stroke-width:0.2019"
       d="m 103.05137,222.29492 c -1.51649,-0.55808 -2.44804,-1.9492 -2.64073,-3.94346 -0.0588,-0.60879 -0.11104,-12.3708 -0.11603,-26.1378 l -0.009,-25.0309 -0.55701,0.12189 c -0.30636,0.067 -2.15209,0.5378 -4.10162,1.04615 -1.94954,0.50834 -4.91182,1.27555 -6.58285,1.70491 -1.67104,0.42936 -4.26873,1.10155 -5.77265,1.49375 -1.50393,0.3922 -5.0131,1.29695 -7.79815,2.01054 -2.78505,0.71359 -6.8411,1.76109 -9.01344,2.32777 -2.17234,0.56668 -5.18019,1.34614 -6.68412,1.73213 -4.61204,1.18372 -4.77658,1.2432 -5.04234,1.82273 -0.13255,0.28906 -0.50164,1.44122 -0.82018,2.56034 -1.15274,4.04977 -5.75609,18.70609 -6.53189,20.79644 -0.4438,1.19577 -0.5222,1.28151 -1.72781,1.88953 -1.08756,0.54848 -1.39617,0.61877 -2.2226,0.50622 -0.52783,-0.0719 -1.29347,-0.35017 -1.70143,-0.61842 -0.84064,-0.55275 -1.60102,-1.92789 -1.60102,-2.89543 0,-0.5877 0.99906,-4.72069 1.73521,-7.17839 0.16578,-0.55345 0.71412,-2.50058 1.21854,-4.32695 4.48771,-16.24878 5.74677,-20.73935 6.77126,-24.15042 0.31582,-1.05155 1.4513,-5.08164 2.52327,-8.95578 1.07197,-3.87413 2.07522,-7.45141 2.22945,-7.94951 0.15422,-0.4981 0.7952,-2.80749 1.42441,-5.13196 0.6292,-2.32448 1.58752,-5.85392 2.12959,-7.8432 0.54207,-1.98928 0.94799,-3.65422 0.90204,-3.69988 -0.10908,-0.10838 -7.72317,-1.97016 -12.81103,-3.13253 -13.63499,-3.11503 -18.41929,-4.29657 -19.04562,-4.70353 -0.91117,-0.59204 -1.05303,-1.20762 -1.05303,-4.56939 v -3.13878 l -0.6553,-0.34284 c -0.36042,-0.18856 -0.98998,-0.66338 -1.39904,-1.05517 -1.19067,-1.14041 -1.30938,-3.16146 -0.25857,-4.40229 0.68784,-0.81223 1.66702,-1.14366 5.09165,-1.72341 6.83976,-1.1579 10.10877,-1.73194 14.23539,-2.49972 2.39515,-0.44563 7.08923,-1.31285 10.43129,-1.92716 3.34206,-0.61431 8.49187,-1.5633 11.44402,-2.10886 2.95216,-0.54556 6.18788,-1.13705 7.1905,-1.31443 1.00262,-0.17737 4.1472,-0.76845 6.98795,-1.3135 2.84075,-0.545056 6.30434,-1.181323 7.69687,-1.413929 3.65343,-0.610272 9.83597,-1.703368 14.30225,-2.528696 l 3.87097,-0.715319 5.24375,0.926766 c 2.88405,0.509723 6.24636,1.107488 7.47178,1.328365 1.22542,0.22088 5.78278,1.034283 10.12746,1.807563 4.34468,0.77328 8.35515,1.49642 8.91216,1.60697 0.9463,0.18782 3.11069,0.57737 11.14021,2.00505 1.78243,0.31692 6.74995,1.21407 11.03892,1.99367 4.28898,0.77959 9.84896,1.78559 12.35551,2.23555 2.50654,0.44995 6.01571,1.08472 7.79814,1.41059 1.78244,0.32586 3.86123,0.69564 4.61956,0.82172 1.64775,0.27397 2.39378,0.81646 2.88682,2.09919 0.40415,1.05148 0.31536,2.44129 -0.20653,3.23269 -0.19039,0.28871 -0.79451,0.80185 -1.34249,1.14031 l -0.99632,0.61539 0.0129,3.2064 c 0.0104,2.59389 -0.048,3.29876 -0.30593,3.68987 -0.4442,0.67359 -1.18112,1.11348 -2.40541,1.43586 -1.48905,0.3921 -11.89302,2.7665 -22.28787,5.08657 -4.88679,1.0907 -8.97356,2.071 -9.0817,2.17846 -0.23917,0.23763 0.74721,3.95351 5.51302,20.76868 1.01959,3.59741 2.2063,7.85392 2.63715,9.45891 0.43084,1.605 1.61029,5.86151 2.621,9.45892 2.14599,7.63819 5.9495,21.32619 7.13013,25.65982 0.45233,1.66034 0.81491,3.40577 0.80572,3.87874 -0.0229,1.17618 -0.55487,2.19644 -1.50012,2.87679 -1.61261,1.1607 -3.77663,0.90911 -5.01561,-0.58312 -0.64855,-0.78111 -0.71288,-0.96819 -3.64496,-10.59999 -3.41987,-11.23421 -4.28117,-13.89276 -4.57277,-14.11478 -0.16492,-0.12556 -1.32224,-0.50227 -2.57185,-0.83712 -6.14792,-1.64744 -10.31392,-2.7532 -13.8173,-3.66745 -2.11664,-0.55236 -4.66876,-1.222 -5.67138,-1.48809 -4.57702,-1.21472 -6.02869,-1.59594 -8.20324,-2.15421 -1.28112,-0.32891 -3.42308,-0.90361 -4.7599,-1.27711 -5.03893,-1.40788 -7.75389,-2.12106 -8.07451,-2.12106 -0.30231,0 -0.33129,0.8891 -0.33129,10.16456 v 10.16455 l -1.20499,-0.045 c -0.66276,-0.0248 -1.25299,0.003 -1.31163,0.0609 -0.0587,0.0583 -0.12036,6.66651 -0.13713,14.68496 -0.0168,8.01846 -0.0948,15.27497 -0.17335,16.12557 -0.15169,1.64235 -0.65909,2.60468 -1.74666,3.31272 -0.68501,0.44597 -2.05919,0.53378 -2.9904,0.19109 z m 1.97959,-2.44844 c 0.28713,-0.28529 0.31829,-4.07067 0.31829,-38.66306 v -38.34681 l -0.75956,0.12991 c -0.41775,0.0714 -1.01114,0.17949 -1.31864,0.24009 l -0.55909,0.11019 0.0527,37.90364 0.0527,37.90363 0.49104,0.51933 c 0.55611,0.58815 1.25237,0.67024 1.72253,0.20308 z M 44.73413,202.60337 c 0.23327,-0.24984 0.71182,-1.44513 1.06761,-2.6666 0.35466,-1.21759 1.36876,-4.60195 2.25357,-7.5208 0.88481,-2.91885 1.82526,-6.04331 2.08988,-6.94325 0.26462,-0.89993 0.93622,-3.08526 1.49245,-4.85629 0.88993,-2.83359 1.89341,-6.15573 4.62005,-15.29526 0.39627,-1.32828 0.97924,-3.18484 1.2955,-4.1257 1.13849,-3.38705 3.71583,-12.49262 5.16861,-18.2604 0.81504,-3.23582 1.53484,-5.96845 1.59957,-6.07251 0.13368,-0.21491 -1.2866,-1.41625 -2.24663,-1.90031 -0.50882,-0.25654 -0.68079,-0.2703 -0.84979,-0.068 -0.22249,0.26636 -1.74972,5.52152 -3.57867,12.31407 -1.65942,6.16293 -2.794,10.2572 -4.85206,17.50906 -1.03664,3.65275 -2.27085,8.04511 -2.7427,9.76079 -0.47185,1.71569 -1.52146,5.42881 -2.33247,8.2514 -1.32341,4.60588 -2.69524,9.54271 -4.36207,15.69776 -0.91058,3.36249 -0.92264,3.517 -0.32124,4.11454 0.63807,0.634 1.14664,0.65241 1.69839,0.0615 z m 121.13226,0.13953 c 0.64816,-0.45109 0.58385,-1.14546 -0.44748,-4.83095 -0.4937,-1.76428 -1.91402,-6.83034 -3.15625,-11.25792 -1.24223,-4.42757 -2.51637,-9.00106 -2.83142,-10.16329 -4.71728,-17.40234 -11.30983,-39.08962 -12.13041,-39.90495 -0.32039,-0.31835 -3.14044,-0.92396 -3.35929,-0.72141 -0.23891,0.22111 0.13522,1.71536 1.64496,6.5698 0.61008,1.96166 1.55166,5.06096 2.09239,6.88733 0.54073,1.82638 1.45069,4.81499 2.02213,6.64137 0.57144,1.82637 1.81443,5.90176 2.7622,9.05641 0.94777,3.15465 2.53196,8.22623 3.52042,11.27019 2.42596,7.47079 6.35114,20.1707 7.59974,24.58899 0.54951,1.9445 1.29416,2.55262 2.28301,1.86443 z M 57.3451,175.87131 c 0.50131,-0.13247 1.04819,-0.24078 1.21529,-0.24066 0.16711,1.1e-4 0.39497,-0.0673 0.50637,-0.1497 0.23044,-0.17054 5.61289,-1.60285 15.49502,-4.12333 3.73197,-0.95185 8.28932,-2.1271 10.12746,-2.61167 1.83813,-0.48455 5.34729,-1.38861 7.79814,-2.00901 2.45084,-0.62039 5.20805,-1.35414 6.12711,-1.63054 l 1.67103,-0.50256 v -0.79854 c 0,-1.03209 0.0212,-1.03272 -4.43849,0.13091 -6.63917,1.73229 -15.51135,4.11624 -18.04447,4.84851 -0.94691,0.27374 -2.90658,0.8115 -4.3548,1.19502 -1.44823,0.38352 -3.77248,1.00123 -5.16501,1.3727 -1.39252,0.37147 -4.08136,1.08338 -5.9752,1.58202 -3.20055,0.84269 -5.3611,1.53799 -5.89424,1.89686 -0.27146,0.18272 -0.68861,0.94434 -0.68861,1.25724 0,0.12542 0.15951,0.18205 0.35446,0.12583 0.19496,-0.0562 0.76463,-0.21059 1.26594,-0.34308 z m 95.60321,-0.14713 c 0,-0.66717 -0.49381,-1.04133 -1.92422,-1.45794 -3.0389,-0.88509 -7.13197,-2.03255 -12.86187,-3.6057 -3.28636,-0.90227 -7.88929,-2.17121 -10.22873,-2.81985 -2.33944,-0.64864 -6.71451,-1.8315 -9.72236,-2.62859 -10.6719,-2.82806 -10.22874,-2.76319 -10.22874,-1.49713 0,0.38531 0.0401,0.70055 0.089,0.70055 0.0796,0 7.08696,1.84814 10.74733,2.83453 0.77982,0.21015 3.14964,0.83231 5.26628,1.38258 2.11664,0.55028 4.48647,1.17311 5.26628,1.38409 4.47627,1.21101 11.9676,3.19055 14.68482,3.88036 1.72673,0.43836 3.54967,0.92247 4.05098,1.0758 3.80654,1.16427 4.86118,1.32726 4.86118,0.7513 z m -90.985,-5.05127 c 2.41737,-0.65395 6.17259,-1.65743 8.34494,-2.22994 2.17234,-0.57252 4.35987,-1.16181 4.86117,-1.30953 1.38632,-0.40851 7.70399,-2.11529 14.58354,-3.9399 3.39777,-0.90116 7.08923,-1.88878 8.20325,-2.19472 l 2.02549,-0.55625 0.06,-1.45902 c 0.0423,-1.02912 -0.0232,-1.55566 -0.22245,-1.78702 -0.47231,-0.54848 -7.46811,-12.4082 -9.47971,-16.07058 -0.83819,-1.52604 -0.65874,-1.44479 -5.69505,-2.57866 -0.86013,-0.19364 -1.52371,-0.41665 -1.47462,-0.49558 0.0491,-0.0789 -0.1133,-0.10503 -0.36088,-0.058 -0.24758,0.047 -0.72334,-0.0241 -1.05726,-0.15817 -0.3339,-0.13401 -0.74383,-0.2635 -0.91093,-0.28774 -0.1671,-0.0242 -0.62516,-0.10825 -1.0179,-0.1867 -0.83005,-0.1658 -1.31181,0.15677 -3.84328,2.5733 -0.83552,0.79759 -2.74961,2.57335 -4.25353,3.94614 -1.50393,1.3728 -3.60031,3.32977 -4.65863,4.34882 -1.05832,1.01906 -2.26634,2.1581 -2.68448,2.53121 -0.67173,0.59936 -0.85787,0.99454 -1.59835,3.39316 -0.46094,1.49313 -1.14679,3.711 -1.52412,4.92858 -0.37731,1.21758 -1.05185,3.42922 -1.49896,4.91474 -0.44712,1.48553 -1.17373,3.80284 -1.6147,5.14959 -0.83125,2.53874 -0.87613,2.71527 -0.69026,2.71527 0.0613,0 2.08935,-0.53505 4.50672,-1.189 z m 89.76971,0.95506 c 0,-0.12867 -0.35763,-1.32864 -0.79473,-2.66661 -0.4371,-1.33797 -1.76724,-5.64589 -2.95585,-9.57314 -1.18862,-3.92726 -2.28118,-7.3687 -2.42792,-7.64764 -0.14673,-0.27894 -1.02641,-1.18639 -1.95485,-2.01656 -1.67475,-1.4975 -3.50351,-3.22792 -9.84521,-9.3158 -2.57543,-2.47235 -3.41148,-3.16191 -3.83363,-3.16191 -0.29694,0 -2.23277,0.4074 -4.30185,0.90535 -2.06909,0.49794 -4.12655,0.97691 -4.57216,1.06438 -0.79378,0.15581 -0.84812,0.22411 -2.68158,3.37128 -1.02926,1.76675 -2.42598,4.1179 -3.10382,5.22479 -0.67783,1.1069 -1.87264,3.09931 -2.65513,4.42758 -0.78248,1.32827 -1.55317,2.56094 -1.71263,2.73925 -0.22817,0.25514 -0.27789,0.91745 -0.23339,3.10941 l 0.0565,2.7852 6.17775,1.63617 c 3.39777,0.89989 8.72987,2.34253 11.84913,3.20587 3.11926,0.86334 6.81072,1.86847 8.20324,2.23363 5.18363,1.3593 11.68212,3.15156 12.7606,3.51932 1.28161,0.43703 2.0255,0.49558 2.0255,0.15943 z m -51.40468,-23.26241 c 0.0322,-2.29681 0.0312,-4.59218 -0.002,-5.10084 l -0.0604,-0.92484 -3.43819,-0.86503 c -1.891,-0.47577 -3.48816,-0.81539 -3.54923,-0.7547 -0.0867,0.0862 3.44701,6.50008 4.6835,8.50074 0.13682,0.22138 0.62846,1.05909 1.09254,1.86159 0.46408,0.8025 0.92739,1.45909 1.02958,1.45909 0.10484,0 0.21126,-1.81945 0.24425,-4.17601 z m 12.42673,-1.155 c 0.88419,-1.50738 2.18123,-3.61039 2.88232,-4.67336 0.70107,-1.06297 1.20239,-2.00211 1.11402,-2.08698 -0.0884,-0.0849 -1.5051,0.17094 -3.14828,0.56845 l -2.9876,0.72274 0.006,4.44413 c 0.005,3.65643 0.0524,4.384 0.26596,4.10491 0.14274,-0.18657 0.98295,-1.57252 1.86714,-3.07989 z m -46.52455,-1.54295 c 0.79997,-0.6906 6.99712,-6.49869 8.63508,-8.09296 0.92942,-0.90463 0.97942,-0.99973 0.60765,-1.15599 -0.81793,-0.34378 -6.24586,-1.60449 -6.49655,-1.50891 -0.14232,0.0542 -0.58967,1.16822 -0.99411,2.47544 -0.40443,1.30723 -1.1314,3.64468 -1.61547,5.19433 -1.19658,3.83062 -1.1674,3.72319 -1.01108,3.72319 0.0763,0 0.46987,-0.28579 0.87448,-0.6351 z m 77.60822,0.12694 c -0.098,-0.76178 -3.43082,-10.92869 -3.62082,-11.04536 -0.14434,-0.0886 -3.50821,0.55178 -4.58757,0.87339 -0.3342,0.0996 -0.94944,0.23807 -1.3672,0.30775 -0.43315,0.0722 -0.75956,0.24174 -0.75956,0.39441 0,0.33833 9.90366,9.8173 10.16627,9.73032 0.10677,-0.0354 0.18276,-0.15259 0.16888,-0.26051 z m -40.31243,-8.04511 c 0,-2.57657 -0.0441,-2.962 -0.37672,-3.29249 -0.35493,-0.35266 -2.71268,-0.99856 -6.4433,-1.76513 -2.11343,-0.43428 -2.09214,-0.46436 -2.09214,2.95722 0,1.96084 0.0724,2.82548 0.24542,2.93174 0.30096,0.18481 7.81857,2.06321 8.31228,2.07696 0.32174,0.009 0.35446,-0.25949 0.35446,-2.9083 z m 3.60537,2.47542 c 0.1679,-0.16682 0.24307,-1.19496 0.24307,-3.32452 v -3.08301 l -0.55701,0.1323 c -1.29826,0.30836 -1.26594,0.21887 -1.26594,3.50501 v 3.01172 h 0.66841 c 0.36763,0 0.77779,-0.10868 0.91147,-0.2415 z m 3.45978,-0.8721 c 0.2169,-0.20291 0.27166,-0.93083 0.24369,-3.2396 -0.0198,-1.63784 -0.0809,-3.02246 -0.13575,-3.07693 -0.0548,-0.0545 -0.4835,0.0328 -0.95261,0.19392 l -0.85293,0.29297 -0.0558,3.17983 -0.0558,3.17983 0.76475,-0.13415 c 0.42061,-0.0738 0.89065,-0.25192 1.04451,-0.39587 z m 2.95201,-0.81809 c 0.27185,-0.27011 0.31474,-0.77765 0.26765,-3.16723 -0.0611,-3.10257 -0.10118,-3.19202 -1.23669,-2.76307 l -0.54105,0.2044 v 3.02378 3.02378 h 0.59318 c 0.32625,0 0.73885,-0.14474 0.91691,-0.32166 z m 2.69794,-0.41028 c 0.45695,-0.12164 0.4604,-0.14867 0.4051,-3.16699 -0.0551,-3.00667 -0.0615,-3.04512 -0.52266,-3.11007 -0.94578,-0.13322 -1.05224,0.19831 -1.05224,3.27692 0,1.57299 0.0608,2.92036 0.13504,2.99415 0.16554,0.16449 0.43351,0.16604 1.03476,0.006 z M 92.7912,136.747 c 0,-1.46882 0.19458,-1.31629 -2.19701,-1.72228 -1.89563,-0.3218 -2.25907,-0.49884 -2.25907,-1.10043 0,-0.83841 0.42611,-0.85831 3.68339,-0.17196 0.49282,0.10384 0.55642,0.0481 0.67752,-0.59326 0.20104,-1.06478 -0.0253,-1.51121 -0.87917,-1.73384 -0.95166,-0.24815 -14.42782,-3.37448 -20.49587,-4.75485 -0.72412,-0.16472 -4.27885,-0.98552 -7.89942,-1.82401 -3.62057,-0.83848 -7.31202,-1.68617 -8.20324,-1.88374 -0.89122,-0.19758 -4.03579,-0.90867 -6.98795,-1.58021 -6.06583,-1.37983 -11.90798,-2.66614 -12.34277,-2.7176 -0.24322,-0.0288 -0.28191,0.42906 -0.23523,2.78309 0.0307,1.54965 0.0749,2.83694 0.0982,2.86064 0.18771,0.19129 8.09563,2.14787 14.10022,3.48868 1.99983,0.44655 8.1178,1.90953 15.08992,3.60842 7.10952,1.73237 12.46163,3.02395 16.00139,3.86147 1.89383,0.44809 5.17513,1.24727 7.29177,1.77595 2.11663,0.52868 4.00794,0.97182 4.20289,0.98474 0.30355,0.0201 0.35446,-0.16382 0.35446,-1.28081 z m 26.72002,0.41841 c 0.2494,-0.29859 0.32506,-5.93185 0.0829,-6.17247 -0.10224,-0.10159 -0.49893,-0.0789 -0.93238,0.0532 l -0.75443,0.23006 v 3.05212 c 0,1.67866 0.0451,3.09688 0.10012,3.1516 0.17184,0.17074 1.29461,-0.0641 1.5038,-0.31455 z m 3.4931,-0.97201 c 0.0897,-0.14038 0.17813,-1.40993 0.19654,-2.82123 0.0184,-1.41128 0.0426,-2.67918 0.0537,-2.81754 0.0277,-0.34433 -1.49495,-0.24107 -1.86485,0.12645 -0.35509,0.35282 -0.35859,5.76528 -0.004,5.9831 0.29204,0.17934 1.41108,-0.14617 1.61845,-0.47078 z m 3.06805,-0.63272 c 0.15255,-0.21 -0.003,-5.96915 -0.16534,-6.13068 -0.0403,-0.04 -0.40172,0.035 -0.80328,0.16672 l -0.73011,0.23942 0.0909,1.03847 c 0.05,0.57117 0.099,1.97395 0.10889,3.11732 l 0.018,2.07884 0.65828,-0.14191 c 0.36206,-0.078 0.73226,-0.24372 0.82266,-0.36818 z m 2.53981,-0.54785 0.63787,-0.22094 v -2.99912 -2.99911 h -0.51968 c -0.28583,0 -0.69599,0.0937 -0.91147,0.20833 -0.3593,0.19107 -0.39179,0.44691 -0.39179,3.08589 0,1.58266 0.0608,2.93793 0.13504,3.01172 0.18221,0.18105 0.30648,0.17077 1.05003,-0.0868 z m 3.27102,-0.84455 c 0.50462,-0.25365 0.50642,-0.26478 0.51949,-3.21708 0.0145,-3.27301 0.0455,-3.20749 -1.29946,-2.74161 l -0.63788,0.22094 v 2.99911 c 0,2.9769 0.003,2.9991 0.45574,2.99615 0.25065,-0.002 0.6836,-0.11751 0.96211,-0.25751 z m 7.381,-1.77791 c 2.22142,-0.53713 4.12031,-1.05746 4.21977,-1.15628 0.17407,-0.17296 0.26176,-1.99106 0.10361,-2.1482 -0.0425,-0.0422 -1.25778,0.19714 -2.70066,0.53188 -4.80883,1.11562 -5.21745,1.18645 -5.50009,0.95338 -0.36795,-0.30341 -0.32723,-0.82871 0.0916,-1.18204 0.19496,-0.16447 2.67872,-0.81855 5.51947,-1.45353 5.43013,-1.21377 5.74889,-1.3474 5.62932,-2.36007 -0.0812,-0.68742 -0.50854,-0.72306 -2.67482,-0.22301 -1.01227,0.23366 -3.61785,0.79666 -5.79019,1.25111 -2.17234,0.45444 -4.10921,0.90989 -4.30417,1.0121 -0.31142,0.16328 -0.35446,0.52304 -0.35446,2.96277 0,1.52731 0.0618,2.83837 0.13743,2.91347 0.18336,0.18219 0.87125,0.0474 5.62318,-1.10158 z m -35.68725,-1.68577 c 0,-0.29702 -0.18028,-0.78057 -0.40063,-1.07455 -0.49034,-0.65421 -0.94616,-0.78352 -9.37237,-2.65886 -3.50917,-0.781 -7.47406,-1.67722 -8.81089,-1.99161 -1.33683,-0.31438 -4.34468,-0.99204 -6.68412,-1.50591 -2.33944,-0.51388 -4.89156,-1.10496 -5.67138,-1.31354 -0.77981,-0.20857 -2.60276,-0.62626 -4.05098,-0.9282 -1.44823,-0.30193 -4.9574,-1.08419 -7.79815,-1.73834 -2.84075,-0.65416 -6.02058,-1.36577 -7.06629,-1.58138 -1.04571,-0.21559 -2.43074,-0.52831 -3.07783,-0.69492 -1.39817,-0.35998 -7.31684,-1.64258 -12.54139,-2.71776 -2.06093,-0.42413 -4.47633,-0.95299 -5.36755,-1.17524 -0.89122,-0.22225 -2.21156,-0.50827 -2.93411,-0.63559 -0.72254,-0.12733 -1.39277,-0.28005 -1.48939,-0.33938 -0.36175,-0.22215 -2.03532,-0.24423 -2.29477,-0.0303 -0.40078,0.33049 -0.34274,1.52973 0.0848,1.75195 0.19495,0.10132 1.03806,0.33321 1.87358,0.51529 2.05394,0.44762 8.14175,1.84207 10.63383,2.43575 2.09828,0.49986 5.11108,1.15791 7.39304,1.61478 0.72412,0.14498 2.91165,0.63667 4.86118,1.09266 1.94954,0.45599 4.91182,1.1376 6.58285,1.5147 1.67103,0.3771 4.45102,1.00912 6.17775,1.40449 1.72673,0.39537 3.73197,0.85241 4.45608,1.01565 4.3693,0.98498 11.84107,2.7478 11.96237,2.82229 0.0788,0.0484 0.47835,0.14091 0.88784,0.20557 0.40949,0.0647 2.94946,0.61572 5.64438,1.22457 2.69491,0.60885 5.4923,1.23606 6.21641,1.39379 0.72412,0.15774 3.32181,0.76985 5.77265,1.36026 4.80149,1.15667 5.0131,1.1581 5.0131,0.0338 z m 4.14441,0.49476 c 0.97908,-0.22653 2.50933,-0.58637 3.40055,-0.79967 6.02483,-1.44191 10.72135,-2.5177 13.16569,-3.01576 3.09416,-0.63045 3.75267,-0.77477 9.01344,-1.97534 7.16685,-1.63556 10.66981,-2.42244 12.15295,-2.72994 0.83551,-0.17323 3.52436,-0.77234 5.9752,-1.33137 2.45085,-0.55902 5.13969,-1.15558 5.9752,-1.32569 0.83552,-0.1701 2.88633,-0.61809 4.55736,-0.99552 8.91592,-2.01384 14.1801,-3.11645 14.42787,-3.02198 0.15289,0.0583 0.22916,0.0275 0.16948,-0.0684 -0.0597,-0.096 0.18624,-0.23045 0.54649,-0.29891 5.3495,-1.0165 6.87804,-1.41615 7.18256,-1.87794 0.48091,-0.72927 0.0766,-1.46875 -0.80121,-1.46533 -0.58567,0.002 -6.90009,1.32029 -20.715,4.32383 -2.33944,0.50862 -5.71188,1.23591 -7.49431,1.6162 -3.46012,0.73823 -7.92497,1.70855 -14.78609,3.21339 -4.86053,1.06604 -9.23364,2.01176 -13.46952,2.91289 -1.61533,0.34364 -5.99039,1.2938 -9.72236,2.11147 -3.73197,0.81767 -7.72153,1.67252 -8.86568,1.89967 -2.29525,0.45568 -2.77085,0.64504 -3.08498,1.22825 -0.22109,0.41046 -0.088,1.32707 0.25553,1.76049 0.24511,0.3092 0.0109,0.32693 2.11683,-0.16029 z m 38.35359,-0.40024 c 0.55214,-0.29361 0.58498,-2.40946 0.0373,-2.40522 -1.10752,0.009 -1.26593,0.18746 -1.26593,1.4295 0,1.06244 0.043,1.18405 0.41842,1.18405 0.23013,0 0.59471,-0.0937 0.81019,-0.20833 z m 2.53512,-0.59669 c 0.23506,0 0.28726,-0.54219 0.28726,-2.98394 v -2.98395 l -0.62499,0.0911 c -0.62286,0.0908 -0.62476,0.095 -0.55952,1.22298 0.036,0.62251 -0.0123,1.83172 -0.10732,2.68713 -0.19166,1.7252 -0.087,2.27332 0.39863,2.08815 0.17528,-0.0668 0.44795,-0.12151 0.60594,-0.12151 z m 2.79423,-0.56374 c 0.14749,-0.23711 0.20781,-5.66108 0.0645,-5.80343 -0.0671,-0.0667 -0.42251,-0.0654 -0.78976,0.003 l -0.66773,0.12414 0.061,2.91882 0.061,2.91882 h 0.58529 c 0.32191,0 0.63042,-0.0726 0.68558,-0.16124 z m 2.51283,-2.81501 c 0.0353,-1.39746 0.13271,-2.22557 0.25318,-2.1516 0.10771,0.0662 0.19585,-0.11683 0.19585,-0.40662 0,-0.30001 -0.0872,-0.47333 -0.20255,-0.40251 -0.11141,0.0684 -0.20255,-0.0681 -0.20255,-0.30337 0,-0.34791 -0.10398,-0.41586 -0.55701,-0.36407 l -0.55702,0.0637 -0.0562,2.98238 -0.0562,2.98239 0.56251,-0.0642 0.5625,-0.0642 z m 2.5143,-1.14945 c -0.0338,-1.54965 -0.13857,-2.89447 -0.2328,-2.98848 -0.0942,-0.094 -0.36277,-0.11055 -0.59679,-0.0367 -0.4065,0.1282 -0.42549,0.26434 -0.42549,3.05155 v 2.91736 l 0.65828,-0.0631 0.65829,-0.0631 z m -55.13316,2.63977 c 0,-0.0424 -0.18242,-0.12455 -0.40538,-0.18249 -0.22296,-0.0579 -0.3543,-0.0232 -0.29187,0.0772 0.10903,0.17528 0.69725,0.26414 0.69725,0.10533 z m 57.99405,-0.47034 c 0.0915,-0.0537 0.11812,-1.24303 0.0593,-2.64294 -0.0715,-1.70085 -0.0451,-2.34498 0.0796,-1.94153 0.167,0.54049 0.17849,0.51239 0.10965,-0.26819 -0.0423,-0.47957 -0.12516,-0.91991 -0.18416,-0.97854 -0.059,-0.0586 -0.45404,-0.0253 -0.87787,0.0741 l -0.77058,0.18073 -0.0607,2.30721 c -0.0334,1.26897 -0.005,2.6076 0.0623,2.97473 0.11608,0.62988 0.15946,0.65974 0.76958,0.52978 0.35562,-0.0757 0.72139,-0.18167 0.81283,-0.23538 z m 2.06318,-0.4593 0.53413,-0.20178 -0.077,-2.81199 c -0.0424,-1.54659 -0.12933,-2.86394 -0.19324,-2.92744 -0.0639,-0.0635 -0.35481,-0.0559 -0.64647,0.0168 l -0.53027,0.13224 v 2.86281 c 0,2.4773 0.0677,3.13115 0.3244,3.13115 0.0299,0 0.29469,-0.0908 0.58847,-0.20178 z m -53.35189,-1.19534 c 3.47849,-0.70248 12.37704,-2.61878 24.79106,-5.33874 6.88594,-1.50874 13.27558,-2.88678 20.66002,-4.45571 3.89907,-0.82842 8.86658,-1.90464 11.03892,-2.3916 2.17235,-0.48696 5.95495,-1.25937 8.4058,-1.71645 4.05021,-0.75537 5.0142,-1.01758 4.74053,-1.2895 -0.15322,-0.15223 -2.88393,-0.65996 -6.70491,-1.24665 -1.97163,-0.30274 -3.53918,-0.62372 -3.48345,-0.71331 0.0557,-0.0896 -0.0326,-0.11184 -0.19617,-0.0495 -0.16362,0.0624 -1.28491,-0.0705 -2.49175,-0.29533 -1.20685,-0.22481 -3.65261,-0.68029 -5.43505,-1.01217 -1.78243,-0.33188 -4.10669,-0.74676 -5.165,-0.92197 -1.05833,-0.17521 -2.79012,-0.49424 -3.84844,-0.70896 -2.06768,-0.41952 -9.25946,-1.72311 -13.87462,-2.51495 -1.55962,-0.26759 -3.61044,-0.63013 -4.55735,-0.80564 -0.94692,-0.17552 -2.99773,-0.54375 -4.55736,-0.81829 -1.55963,-0.27455 -4.52191,-0.80955 -6.58285,-1.18891 -15.65415,-2.881431 -15.66765,-2.883061 -18.7358,-2.261828 -0.89122,0.180453 -3.99022,0.743592 -6.88667,1.251423 -10.09416,1.769795 -12.17574,2.143545 -15.69757,2.818565 -1.94953,0.37366 -6.32459,1.1862 -9.72236,1.80564 -3.39775,0.61945 -7.81839,1.43522 -9.82363,1.81283 -8.8814,1.67249 -20.51046,3.76729 -23.35318,4.20673 -1.70405,0.26341 -3.13466,0.5151 -3.17914,0.55929 -0.31885,0.31681 0.72574,0.64935 4.25584,1.35485 6.77335,1.35365 25.90067,5.53402 29.56825,6.46227 0.44561,0.11279 2.63314,0.60591 4.86118,1.09584 2.22804,0.48993 5.9195,1.31297 8.20325,1.82897 2.28373,0.51601 4.69913,1.05943 5.36755,1.2076 8.24389,1.82747 13.50991,3.01737 15.08991,3.40969 1.75634,0.4361 2.54613,0.60644 3.16073,0.68172 0.12307,0.0151 1.99159,-0.32961 4.15226,-0.76596 z m 56.22762,0.51738 c 0.0391,-0.0388 0.0457,-1.37953 0.0148,-2.97942 l -0.0562,-2.9089 -0.65829,0.16973 -0.65828,0.16973 v 2.93757 2.93758 l 0.64352,-0.12788 c 0.35393,-0.0703 0.67546,-0.15961 0.71449,-0.19841 z m 2.17004,-0.44994 c 0.27161,-0.10356 0.32039,-0.5631 0.32039,-3.0188 0,-3.0328 -0.0238,-3.10662 -0.89491,-2.77449 -0.27162,0.10357 -0.32039,0.5631 -0.32039,3.01881 0,3.03279 0.0238,3.10661 0.89491,2.77448 z m 2.54842,-0.67842 c 0.24089,-0.15116 0.31848,-0.78192 0.37455,-3.04491 0.0646,-2.60755 0.0413,-2.84304 -0.26975,-2.72444 -0.18726,0.0714 -0.51531,0.12982 -0.72901,0.12982 -0.36514,0 -0.38853,0.17564 -0.38853,2.91817 0,2.64622 0.033,2.91789 0.35446,2.9151 0.19496,-0.002 0.49118,-0.0889 0.65828,-0.19374 z m 2.92873,-0.59495 c 0.0485,-0.0779 0.14929,-1.4259 0.22411,-2.9956 0.14919,-3.13004 0.17651,-3.06085 -1.0767,-2.72715 -0.44643,0.11887 -0.45574,0.18183 -0.45574,3.08183 v 2.96047 l 0.61013,-0.089 c 0.33557,-0.0489 0.64976,-0.15269 0.6982,-0.23057 z m -12.31017,-0.25223 c -0.0647,-0.16055 -0.11265,-0.11286 -0.12237,0.12159 -0.009,0.21215 0.0391,0.33102 0.10638,0.26414 0.0673,-0.0669 0.0745,-0.24045 0.016,-0.38573 z m 14.76786,-0.3951 c 0.1441,-0.23167 0.12159,-5.63294 -0.0241,-5.77767 -0.0424,-0.0422 -0.3093,-0.0188 -0.59299,0.0519 l -0.51581,0.12863 v 2.596 c 0,1.4278 0.0554,2.73925 0.12295,2.91434 0.14264,0.36934 0.79909,0.42573 1.00993,0.0868 z M 33.62613,120.93924 c 0.0153,-3.00505 0.16887,-2.77977 -2.25797,-3.31271 -0.86336,-0.1896 -1.56975,-0.40801 -1.56975,-0.48536 0,-0.0773 -0.31902,-0.10364 -0.70892,-0.0584 l -0.70893,0.0822 0.003,2.54396 c 0.002,1.39918 0.0853,2.67301 0.18576,2.83072 0.24684,0.38753 4.49533,1.43827 4.80725,1.18893 0.15658,-0.12516 0.24067,-1.0654 0.24946,-2.78937 z m 143.17829,0.12213 c 0.0311,-1.54087 -0.0281,-2.88569 -0.13152,-2.98848 -0.10346,-0.1028 -0.37957,-0.12652 -0.61359,-0.0527 -0.40651,0.12819 -0.42549,0.26432 -0.42549,3.05216 v 2.91798 l 0.55701,-0.0637 0.55701,-0.0637 z m 2.18803,2.29845 c 0.23367,0 0.28667,-0.49736 0.28415,-2.66661 -0.002,-1.46664 -0.0831,-2.79207 -0.18081,-2.94542 -0.12105,-0.18993 -0.35555,-0.23445 -0.73562,-0.13967 l -0.55792,0.13913 0.13003,1.95096 c 0.0715,1.07302 0.1305,2.39082 0.13108,2.92844 5.8e-4,0.80842 0.0564,0.95636 0.32144,0.85533 0.17621,-0.0672 0.44965,-0.12216 0.60765,-0.12216 z m 2.52861,-0.61084 c 0.35744,-0.19007 0.39178,-0.44488 0.39178,-2.9063 0,-1.49485 -0.0862,-2.75088 -0.19323,-2.81663 -0.10628,-0.0653 -0.42529,-0.0608 -0.70892,0.01 l -0.51569,0.1286 v 2.89636 c 0,3.09958 0.0426,3.21102 1.02606,2.68803 z"
       id="path836" />
    <text
       xml:space="preserve"
       style="font-style:normal;font-weight:normal;font-size:19.7556px;line-height:1.25;font-family:sans-serif;fill:#000000;fill-opacity:1;stroke:none;stroke-width:0.264583"
       x="51.62093"
       y="79.919998"
       id="text2339"><tspan
         sodipodi:role="line"
         id="tspan2337"
         style="font-style:normal;font-variant:normal;font-weight:normal;font-stretch:normal;font-size:19.7556px;font-family:'Hasklug Nerd Font';-inkscape-font-specification:'Hasklug Nerd Font';fill:#1f3b4d;fill-opacity:1;stroke-width:0.264583"
         x="51.62093"
         y="79.919998">tinytable</tspan></text>
  </g>
</svg>
