<svg xmlns="http://www.w3.org/2000/svg"  width="90" height="90" viewbox="0 0 90 90"><path d="M87.830,49.697 C87.399,51.082 86.357,52.145 84.866,52.788 C83.856,53.225 82.712,53.439 81.509,53.439 C79.829,53.439 78.033,53.019 76.328,52.193 C74.186,51.156 72.280,49.552 70.901,47.800 C69.368,53.712 67.171,59.008 65.255,63.250 C61.621,71.295 55.518,81.991 44.509,81.991 C33.520,81.991 27.420,71.325 23.787,63.304 C21.859,59.045 19.645,53.723 18.106,47.768 C16.724,49.532 14.810,51.150 12.656,52.193 C10.951,53.019 9.155,53.439 7.474,53.439 C6.271,53.439 5.127,53.225 4.117,52.788 C2.626,52.145 1.584,51.082 1.181,49.797 C0.900,48.686 0.991,47.737 1.422,46.876 C1.598,46.523 1.887,46.238 2.243,46.065 C2.243,46.065 14.534,40.096 14.534,40.096 C11.951,37.959 10.260,34.487 10.260,30.563 C10.260,23.972 14.761,18.809 20.508,18.809 C21.439,18.809 22.351,18.941 23.232,19.200 C25.116,16.250 28.213,14.418 31.494,14.418 C32.695,14.418 33.835,14.630 34.904,15.048 C36.448,10.902 40.177,8.004 44.340,8.004 C48.505,8.004 52.121,10.810 53.736,15.063 C54.817,14.634 55.970,14.418 57.186,14.418 C60.418,14.418 63.399,16.184 65.404,19.213 C66.299,18.946 67.225,18.809 68.173,18.809 C73.919,18.809 78.421,23.972 78.421,30.563 C78.421,34.492 76.814,37.902 74.306,40.026 C74.306,40.026 86.740,46.065 86.740,46.065 C87.096,46.238 87.385,46.523 87.562,46.876 C87.992,47.737 88.083,48.686 87.830,49.697 zM27.061,61.824 C32.183,73.133 37.727,78.400 44.509,78.400 C51.305,78.400 56.856,73.118 61.979,61.774 C64.319,56.595 67.086,49.796 68.418,42.306 C68.335,42.308 68.255,42.319 68.173,42.319 C64.945,42.319 61.967,40.559 59.963,37.535 C59.704,37.608 59.447,37.667 59.193,37.718 C57.506,41.779 53.964,44.346 49.918,44.346 C47.594,44.346 45.304,43.424 43.495,41.813 C41.686,43.424 39.396,44.346 37.072,44.346 C33.223,44.346 29.849,42.070 28.095,38.483 C26.212,40.848 23.481,42.283 20.601,42.313 C21.937,49.835 24.714,56.641 27.061,61.824 zM4.667,48.877 C4.757,49.008 5.036,49.275 5.543,49.494 C6.680,49.984 8.734,50.102 11.087,48.965 C14.333,47.394 16.217,44.527 16.671,43.048 C16.671,43.048 4.667,48.877 4.667,48.877 zM74.827,30.563 C74.827,25.985 71.904,22.399 68.173,22.399 C67.218,22.399 66.295,22.619 65.428,23.052 C65.002,23.268 64.508,23.301 64.055,23.151 C63.603,23.001 63.229,22.676 63.016,22.251 C61.687,19.593 59.508,18.009 57.186,18.009 C55.882,18.009 54.742,18.388 53.701,19.168 C53.202,19.541 52.547,19.633 51.969,19.406 C51.390,19.180 50.969,18.672 50.855,18.060 C50.149,14.254 47.470,11.595 44.340,11.595 C41.173,11.595 38.377,14.346 37.836,17.996 C37.743,18.623 37.327,19.153 36.742,19.394 C36.156,19.635 35.487,19.547 34.979,19.170 C33.938,18.388 32.797,18.009 31.494,18.009 C29.100,18.009 26.825,19.645 25.700,22.177 C25.500,22.625 25.126,22.971 24.663,23.138 C24.202,23.301 23.691,23.273 23.253,23.052 C22.385,22.619 21.462,22.399 20.508,22.399 C16.776,22.399 13.853,25.985 13.853,30.563 C13.853,34.857 16.577,38.349 20.010,38.667 C20.010,38.667 20.029,38.664 20.029,38.664 C20.029,38.664 20.030,38.669 20.030,38.669 C20.190,38.684 20.344,38.729 20.508,38.729 C22.902,38.729 25.176,37.093 26.302,34.561 C26.502,34.113 26.876,33.765 27.340,33.600 C27.800,33.437 28.311,33.465 28.751,33.686 C28.870,33.745 28.984,33.814 29.102,33.849 C29.926,33.849 30.502,34.393 30.702,35.192 C31.535,38.519 34.095,40.755 37.072,40.755 C38.943,40.755 40.807,39.762 42.058,38.097 C42.397,37.646 42.930,37.378 43.495,37.378 C44.060,37.378 44.593,37.646 44.932,38.097 C46.183,39.762 48.046,40.755 49.918,40.755 C52.704,40.755 55.150,38.727 56.150,35.590 C56.354,34.947 56.902,34.474 57.568,34.363 C58.436,34.220 59.257,34.083 59.809,33.752 C60.238,33.494 60.757,33.429 61.236,33.567 C61.717,33.705 62.118,34.040 62.342,34.487 C63.671,37.144 65.852,38.729 68.173,38.729 C71.904,38.729 74.827,35.143 74.827,30.563 zM72.312,43.050 C72.766,44.527 74.650,47.392 77.896,48.965 C80.248,50.102 82.303,49.984 83.440,49.494 C83.901,49.295 84.173,49.057 84.299,48.871 C84.299,48.871 72.312,43.050 72.312,43.050 zM32.001,51.159 C34.335,51.159 36.227,53.049 36.227,55.380 C36.227,57.710 34.335,59.600 32.001,59.600 C29.668,59.600 27.776,57.710 27.776,55.380 C27.776,53.049 29.668,51.159 32.001,51.159 zM57.017,51.159 C59.350,51.159 61.242,53.049 61.242,55.380 C61.242,57.710 59.350,59.600 57.017,59.600 C54.683,59.600 52.791,57.710 52.791,55.380 C52.791,53.049 54.683,51.159 57.017,51.159 z"></path></svg>
