<svg xmlns="http://www.w3.org/2000/svg"  width="90" height="90" viewbox="0 0 90 90"><path d="M36.956,39.486 C36.956,36.662 39.259,34.372 42.101,34.372 C44.942,34.372 47.245,36.662 47.245,39.486 C47.245,42.310 44.942,44.600 42.101,44.600 C39.259,44.600 36.956,42.310 36.956,39.486 zM72.925,29.238 C72.925,29.238 50.360,59.323 50.360,59.323 L50.360,75.870 C50.360,75.870 61.955,75.870 61.955,75.870 C63.101,75.870 64.031,76.795 64.031,77.934 C64.031,79.074 63.101,79.999 61.955,79.999 C61.955,79.999 48.284,79.999 48.284,79.999 C47.138,79.999 46.209,79.074 46.209,77.934 C46.209,77.934 46.209,58.638 46.209,58.638 C46.209,58.195 46.353,57.761 46.620,57.404 C46.620,57.404 69.567,26.812 69.567,26.812 C69.760,26.523 69.922,26.002 69.876,25.852 C69.874,25.852 69.307,25.153 66.244,25.153 C66.244,25.153 23.817,25.153 23.817,25.153 C20.752,25.153 20.186,25.852 20.181,25.860 C20.127,26.038 20.357,26.620 20.524,26.853 C20.524,26.853 43.439,57.404 43.439,57.404 C43.707,57.761 43.851,58.195 43.851,58.638 C43.851,58.638 43.851,77.934 43.851,77.934 C43.851,79.074 42.922,79.999 41.776,79.999 C41.776,79.999 28.105,79.999 28.105,79.999 C26.959,79.999 26.030,79.074 26.030,77.934 C26.030,76.795 26.959,75.870 28.105,75.870 C28.105,75.870 39.700,75.870 39.700,75.870 L39.700,59.323 C39.700,59.323 17.165,29.280 17.165,29.280 C16.935,28.957 15.215,26.421 16.495,23.962 C17.518,21.993 19.900,21.034 23.770,21.026 C23.770,21.026 16.899,14.196 16.899,14.196 C16.327,13.627 16.326,12.704 16.899,12.133 C16.899,12.133 18.690,10.351 18.690,10.351 C19.239,9.805 20.214,9.800 20.767,10.351 C20.767,10.351 31.503,21.024 31.503,21.024 C31.503,21.024 66.244,21.024 66.244,21.024 C70.142,21.024 72.537,21.985 73.565,23.962 C74.845,26.421 73.125,28.957 72.925,29.238 z"></path></svg>
