<svg xmlns="http://www.w3.org/2000/svg"  width="90" height="90" viewbox="0 0 90 90"><path d="M85.317,4.631 C84.467,3.778 83.086,3.778 82.236,4.631 C82.236,4.631 76.384,10.486 76.384,10.486 C73.936,8.483 70.811,7.278 67.409,7.278 C59.577,7.278 53.207,13.652 53.207,21.488 C53.207,24.891 54.411,28.016 56.412,30.465 C56.412,30.465 53.283,33.594 53.283,33.594 C53.283,33.594 49.578,29.888 49.578,29.888 C47.037,27.346 42.905,27.346 40.364,29.888 C40.364,29.888 39.775,30.477 39.775,30.477 C39.773,30.478 39.771,30.479 39.770,30.480 C39.768,30.482 39.768,30.484 39.766,30.486 C39.766,30.486 33.918,36.336 33.918,36.336 C33.917,36.337 33.916,36.337 33.915,36.338 C33.914,36.339 33.914,36.340 33.913,36.341 C33.913,36.341 29.870,40.386 29.870,40.386 C27.329,42.926 27.329,47.062 29.870,49.602 C29.870,49.602 33.575,53.309 33.575,53.309 C33.575,53.309 30.712,56.175 30.712,56.175 C28.457,54.667 25.750,53.784 22.840,53.784 C15.008,53.784 8.637,60.158 8.637,67.994 C8.637,70.905 9.519,73.613 11.027,75.869 C11.027,75.869 4.624,82.273 4.624,82.273 C3.773,83.123 3.772,84.504 4.623,85.356 C5.048,85.782 5.607,85.995 6.164,85.995 C6.722,85.995 7.280,85.782 7.705,85.356 C7.705,85.356 13.979,79.081 13.979,79.081 C16.411,81.030 19.489,82.203 22.840,82.203 C30.672,82.203 37.044,75.830 37.044,67.994 C37.044,64.641 35.871,61.562 33.923,59.130 C33.923,59.130 36.658,56.393 36.658,56.393 C36.658,56.393 40.364,60.101 40.364,60.101 C41.634,61.371 43.302,62.007 44.971,62.007 C46.640,62.007 48.307,61.371 49.578,60.101 C49.578,60.101 60.072,49.602 60.072,49.602 C62.612,47.062 62.612,42.926 60.072,40.386 C60.072,40.386 56.365,36.677 56.365,36.677 C56.365,36.677 59.661,33.381 59.661,33.381 C61.891,34.841 64.550,35.697 67.409,35.697 C75.241,35.697 81.613,29.324 81.613,21.488 C81.613,18.628 80.757,15.968 79.298,13.736 C79.298,13.736 85.317,7.714 85.317,7.714 C86.169,6.861 86.168,5.481 85.317,4.631 zM49.276,55.323 C43.836,49.636 42.292,46.243 40.922,43.227 C40.078,41.369 39.258,39.591 37.661,37.670 C37.661,37.670 40.968,34.363 40.968,34.363 C42.123,35.820 42.757,37.206 43.507,38.857 C44.929,41.986 46.677,45.833 52.591,52.008 C52.591,52.008 49.276,55.323 49.276,55.323 zM22.840,78.612 C19.716,78.612 16.910,77.245 14.966,75.088 C14.953,75.074 14.949,75.056 14.936,75.042 C14.927,75.034 14.916,75.031 14.907,75.023 C13.245,73.148 12.226,70.690 12.226,67.994 C12.226,62.140 16.988,57.376 22.840,57.376 C28.692,57.376 33.454,62.140 33.454,67.994 C33.454,73.848 28.692,78.612 22.840,78.612 zM42.903,57.562 C42.903,57.562 32.409,47.064 32.409,47.064 C31.268,45.921 31.268,44.067 32.409,42.925 C32.409,42.925 35.113,40.220 35.113,40.220 C36.268,41.678 36.903,43.063 37.653,44.713 C39.072,47.837 40.818,51.676 46.707,57.832 C45.563,58.680 43.940,58.597 42.903,57.562 zM57.533,47.064 C57.533,47.064 55.130,49.467 55.130,49.467 C49.691,43.780 48.146,40.387 46.777,37.371 C45.949,35.547 45.144,33.802 43.607,31.923 C44.034,31.697 44.500,31.571 44.971,31.571 C45.720,31.571 46.469,31.857 47.039,32.426 C47.039,32.426 57.533,42.925 57.533,42.925 C58.674,44.067 58.674,45.921 57.533,47.064 zM67.409,32.106 C61.557,32.106 56.796,27.342 56.796,21.488 C56.796,15.634 61.557,10.870 67.409,10.870 C73.261,10.870 78.023,15.634 78.023,21.488 C78.023,27.342 73.261,32.106 67.409,32.106 z"></path></svg>
