<svg xmlns="http://www.w3.org/2000/svg"  width="90" height="90" viewbox="0 0 90 90"><path d="M81.159,39.185 C79.307,41.855 75.116,42.076 70.599,39.967 C70.229,42.606 68.944,45.040 67.789,47.226 C67.369,48.020 66.959,48.794 66.613,49.547 C65.031,52.991 62.988,55.272 60.631,57.815 C60.880,58.011 61.125,58.214 61.343,58.453 C62.368,59.576 62.888,61.042 62.769,62.470 C62.769,62.470 62.776,70.487 62.776,70.487 C62.776,73.598 60.424,76.036 57.381,76.181 C54.689,79.778 49.919,81.993 44.621,81.993 C39.323,81.993 34.554,79.778 31.861,76.181 C28.818,76.036 26.467,73.598 26.467,70.487 C26.467,70.487 26.467,62.321 26.467,62.321 C26.467,60.479 27.305,58.885 28.607,57.845 C26.172,55.194 24.062,52.766 22.481,49.168 C22.143,48.400 21.700,47.585 21.233,46.721 C20.449,45.279 19.599,43.710 19.075,42.036 C13.568,45.029 8.189,45.031 5.954,41.805 C3.386,38.097 6.184,31.966 12.460,27.544 C14.841,25.866 17.378,24.711 19.780,24.196 C19.525,21.963 19.699,19.617 19.926,17.220 C20.018,16.630 20.066,15.580 20.108,14.653 C20.155,13.605 20.200,12.612 20.296,11.932 C20.319,10.940 20.572,9.952 21.050,8.991 C21.795,7.485 23.411,6.707 24.968,7.097 C24.968,7.097 25.792,7.303 25.792,7.303 C25.792,7.303 26.155,8.078 26.155,8.078 C27.332,10.583 29.347,13.746 31.692,15.678 C35.624,13.397 40.068,12.198 44.621,12.198 C49.296,12.198 53.843,13.454 57.846,15.843 C60.190,13.947 62.106,10.726 63.182,8.149 C63.182,8.149 63.530,7.315 63.530,7.315 C63.530,7.315 64.401,7.097 64.401,7.097 C65.959,6.707 67.574,7.485 68.321,8.993 C68.798,9.955 69.051,10.943 69.074,11.934 C69.169,12.610 69.214,13.603 69.262,14.650 C69.303,15.577 69.350,16.630 69.427,17.094 C69.612,19.019 69.838,21.400 69.648,23.706 C71.569,24.231 73.563,25.193 75.414,26.499 C80.981,30.419 83.451,35.874 81.159,39.185 zM44.621,78.375 C47.447,78.375 50.120,77.571 52.171,76.208 C52.171,76.208 51.368,76.208 51.368,76.208 C50.464,76.208 49.703,75.529 49.589,74.625 C49.589,74.705 48.767,73.656 44.790,73.656 C41.053,73.656 40.010,74.603 39.951,74.838 C39.752,75.642 39.035,76.208 38.212,76.208 C38.212,76.208 37.071,76.208 37.071,76.208 C39.123,77.571 41.795,78.375 44.621,78.375 zM30.053,70.487 C30.053,71.706 30.930,72.590 32.140,72.590 C32.140,72.590 37.107,72.590 37.107,72.590 C38.086,71.237 40.239,70.038 44.790,70.038 C49.563,70.038 51.628,71.354 52.515,72.590 C52.515,72.590 57.103,72.590 57.103,72.590 C58.312,72.590 59.190,71.706 59.190,70.487 C59.190,70.487 59.190,62.321 59.190,62.321 C59.231,61.746 59.051,61.284 58.704,60.902 C58.313,60.473 57.777,60.218 57.272,60.218 C57.272,60.218 32.140,60.218 32.140,60.218 C30.930,60.218 30.053,61.102 30.053,62.321 C30.053,62.321 30.053,70.487 30.053,70.487 zM73.360,29.463 C71.394,28.077 69.283,27.177 67.413,26.929 C67.413,26.929 65.517,26.678 65.517,26.678 C65.517,26.678 65.888,24.784 65.888,24.784 C66.305,22.663 66.129,20.259 65.874,17.562 C65.778,17.011 65.730,15.944 65.679,14.814 C65.637,13.889 65.590,12.841 65.513,12.377 C65.513,12.377 65.490,12.081 65.490,12.081 C65.490,11.960 65.481,11.839 65.466,11.716 C64.212,14.115 61.992,17.574 58.861,19.548 C58.861,19.548 57.886,20.162 57.886,20.162 C57.886,20.162 56.926,19.526 56.926,19.526 C53.262,17.097 49.008,15.815 44.621,15.815 C40.341,15.815 36.172,17.046 32.564,19.375 C32.564,19.375 31.587,20.006 31.587,20.006 C31.587,20.006 30.615,19.365 30.615,19.365 C27.531,17.326 25.228,13.889 23.926,11.578 C23.895,11.747 23.880,11.915 23.880,12.081 C23.880,12.081 23.856,12.379 23.856,12.379 C23.779,12.842 23.732,13.892 23.690,14.819 C23.639,15.947 23.590,17.012 23.479,17.689 C23.232,20.347 23.043,23.030 23.609,25.276 C23.609,25.276 24.141,27.386 24.141,27.386 C24.141,27.386 21.986,27.526 21.986,27.526 C19.717,27.673 16.994,28.760 14.514,30.508 C9.894,33.762 7.737,38.063 8.893,39.735 C10.036,41.383 14.748,40.838 19.342,37.630 C19.342,37.630 22.073,35.723 22.073,35.723 C22.073,35.723 22.155,39.072 22.155,39.072 C22.202,40.976 23.308,43.014 24.378,44.985 C24.861,45.875 25.360,46.796 25.759,47.703 C27.225,51.037 29.256,53.240 31.827,56.029 C31.827,56.029 32.352,56.599 32.352,56.599 L56.851,56.599 C56.851,56.599 57.669,55.715 57.669,55.715 C60.056,53.144 61.942,51.113 63.360,48.027 C63.732,47.216 64.172,46.380 64.624,45.525 C65.849,43.205 67.117,40.806 67.117,38.504 C67.117,38.108 67.089,37.719 67.062,37.331 C67.062,37.331 66.805,33.383 66.805,33.383 C66.805,33.383 69.818,35.390 69.818,35.390 C73.828,38.062 77.470,38.195 78.220,37.113 C79.021,35.955 77.527,32.398 73.360,29.463 zM54.236,39.014 C51.907,39.014 50.019,37.110 50.019,34.761 C50.019,32.412 51.907,30.508 54.236,30.508 C56.565,30.508 58.453,32.412 58.453,34.761 C58.453,37.110 56.565,39.014 54.236,39.014 zM35.682,39.014 C33.353,39.014 31.465,37.110 31.465,34.761 C31.465,32.412 33.353,30.508 35.682,30.508 C38.010,30.508 39.898,32.412 39.898,34.761 C39.898,37.110 38.010,39.014 35.682,39.014 zM37.052,61.810 C38.927,61.810 40.447,63.343 40.447,65.234 C40.447,67.125 38.927,68.658 37.052,68.658 C35.177,68.658 33.658,67.125 33.658,65.234 C33.658,63.343 35.177,61.810 37.052,61.810 zM52.233,61.810 C54.107,61.810 55.627,63.343 55.627,65.234 C55.627,67.125 54.107,68.658 52.233,68.658 C50.358,68.658 48.838,67.125 48.838,65.234 C48.838,63.343 50.358,61.810 52.233,61.810 z"></path></svg>
