<svg xmlns="http://www.w3.org/2000/svg"  width="90" height="90" viewbox="0 0 90 90"><path d="M44.999,50.968 C36.349,50.968 28.259,49.734 22.221,47.495 C12.949,44.055 11.002,39.221 11.002,35.771 C11.002,22.108 26.254,10.991 44.999,10.991 C63.744,10.991 78.996,22.108 78.996,35.771 C78.996,46.269 61.921,50.968 44.999,50.968 zM44.999,14.490 C28.201,14.490 14.535,24.036 14.535,35.771 C14.535,43.369 30.231,47.471 44.999,47.471 C59.768,47.471 75.463,43.369 75.463,35.771 C75.463,24.036 61.797,14.490 44.999,14.490 zM68.775,38.093 C67.050,38.861 64.908,37.846 63.990,35.825 C63.072,33.805 63.726,31.544 65.451,30.775 C67.176,30.007 69.318,31.023 70.236,33.043 C71.154,35.064 70.500,37.324 68.775,38.093 zM54.450,27.534 C52.212,27.534 50.398,26.133 50.398,24.404 C50.398,22.675 52.212,21.274 54.450,21.274 C56.687,21.274 58.501,22.675 58.501,24.404 C58.501,26.133 56.687,27.534 54.450,27.534 zM56.840,38.446 C56.840,40.662 55.026,42.458 52.788,42.458 C50.551,42.458 48.737,40.662 48.737,38.446 C48.737,36.230 50.551,34.434 52.788,34.434 C55.026,34.434 56.840,36.230 56.840,38.446 zM36.175,42.458 C33.938,42.458 32.124,40.662 32.124,38.446 C32.124,36.230 33.938,34.434 36.175,34.434 C38.413,34.434 40.227,36.230 40.227,38.446 C40.227,40.662 38.413,42.458 36.175,42.458 zM34.514,27.534 C32.276,27.534 30.462,26.133 30.462,24.404 C30.462,22.675 32.276,21.274 34.514,21.274 C36.751,21.274 38.565,22.675 38.565,24.404 C38.565,26.133 36.751,27.534 34.514,27.534 zM21.583,38.311 C19.800,37.841 18.821,35.724 19.396,33.583 C19.972,31.442 21.884,30.087 23.668,30.557 C25.451,31.028 26.430,33.144 25.854,35.285 C25.279,37.426 23.366,38.781 21.583,38.311 zM29.449,50.894 C30.373,51.203 30.870,52.195 30.556,53.109 C28.327,59.651 28.472,64.935 30.977,68.387 C33.436,71.782 38.154,73.502 44.999,73.502 C51.886,73.502 56.620,71.791 59.067,68.416 C61.555,64.985 61.684,59.691 59.442,53.109 C59.128,52.195 59.625,51.203 60.550,50.894 C61.476,50.586 62.475,51.077 62.787,51.991 C65.410,59.685 65.115,66.071 61.937,70.456 C58.788,74.799 53.090,77.001 44.999,77.001 C36.952,77.001 31.269,74.789 28.107,70.427 C24.912,66.021 24.602,59.645 27.211,51.991 C27.523,51.079 28.528,50.587 29.449,50.894 z"></path></svg>
