<svg xmlns="http://www.w3.org/2000/svg"  width="90" height="90" viewbox="0 0 90 90"><path d="M73.073,47.934 C75.576,50.316 76.585,53.759 75.711,57.017 C74.842,60.278 72.193,62.840 68.886,63.565 C69.914,66.793 69.068,70.280 66.681,72.667 C64.318,75.035 60.859,75.886 57.647,74.894 C54.972,74.063 52.209,73.490 49.433,73.191 C49.433,73.191 36.943,71.845 36.943,71.845 C35.234,71.657 33.562,72.571 32.792,74.116 C32.300,75.095 31.361,75.785 30.283,75.963 C30.099,75.994 29.914,76.007 29.731,76.007 C28.833,76.007 27.957,75.651 27.310,75.005 C27.310,75.005 15.005,62.695 15.005,62.695 C14.226,61.917 13.869,60.805 14.048,59.722 C14.222,58.646 14.911,57.705 15.892,57.213 C17.437,56.441 18.349,54.771 18.164,53.054 C18.164,53.054 16.814,40.539 16.814,40.539 C16.518,37.818 15.931,34.984 15.113,32.345 C14.122,29.137 14.975,25.674 17.341,23.308 C19.727,20.923 23.209,20.077 26.435,21.099 C27.245,17.744 29.719,15.147 32.978,14.274 C36.240,13.397 39.677,14.411 41.959,16.910 C44.337,14.413 47.777,13.401 51.037,14.275 C54.294,15.143 56.770,17.738 57.496,21.046 C60.802,20.075 64.289,20.917 66.676,23.305 C69.060,25.688 69.906,29.175 68.886,32.402 C72.242,33.215 74.841,35.690 75.713,38.951 C76.585,42.213 75.572,45.654 73.073,47.934 zM72.472,39.819 C71.926,37.776 70.294,36.222 68.216,35.766 C67.277,35.561 66.463,34.966 65.984,34.132 C65.505,33.309 65.395,32.307 65.688,31.388 C66.328,29.362 65.799,27.173 64.304,25.679 C62.811,24.182 60.626,23.653 58.599,24.296 C57.676,24.586 56.681,24.472 55.855,23.999 C55.020,23.518 54.425,22.704 54.220,21.766 C53.764,19.690 52.212,18.062 50.171,17.517 C48.123,16.967 45.966,17.604 44.536,19.173 C43.229,20.598 40.771,20.587 39.480,19.172 C38.050,17.604 35.895,16.961 33.846,17.516 C31.804,18.063 30.253,19.693 29.799,21.768 C29.595,22.707 28.999,23.521 28.165,24.000 C27.342,24.480 26.338,24.587 25.422,24.299 C24.852,24.119 24.269,24.029 23.695,24.029 C22.220,24.029 20.788,24.606 19.714,25.682 C18.230,27.165 17.695,29.339 18.318,31.354 C19.198,34.193 19.831,37.246 20.149,40.178 C20.149,40.178 21.499,52.695 21.499,52.695 C21.833,55.798 20.183,58.820 17.395,60.215 C17.395,60.215 29.683,72.631 29.683,72.631 C31.183,69.825 34.189,68.168 37.304,68.509 C37.304,68.509 49.794,69.855 49.794,69.855 C52.782,70.177 55.759,70.794 58.641,71.688 C60.649,72.312 62.828,71.776 64.309,70.294 C65.805,68.797 66.334,66.610 65.690,64.582 C65.690,64.581 65.688,64.581 65.688,64.579 C65.402,63.670 65.510,62.671 65.983,61.840 C66.474,60.995 67.289,60.401 68.226,60.201 C70.298,59.748 71.925,58.195 72.470,56.150 C73.019,54.105 72.384,51.947 70.814,50.513 C70.103,49.866 69.698,48.942 69.701,47.982 C69.698,47.029 70.102,46.106 70.811,45.457 C72.382,44.023 73.019,41.863 72.472,39.819 zM64.043,45.788 C63.967,45.836 63.879,45.885 63.800,45.925 C63.800,45.925 42.884,56.120 42.884,56.120 C42.440,56.338 41.905,56.153 41.687,55.709 C41.486,55.296 41.631,54.806 42.006,54.564 C42.006,54.564 61.540,41.919 61.540,41.919 C62.606,41.226 64.034,41.533 64.726,42.601 C65.417,43.671 65.110,45.095 64.043,45.788 zM57.607,35.640 C57.607,35.640 39.185,52.080 39.185,52.080 C38.815,52.409 38.249,52.377 37.920,52.008 C37.615,51.664 37.620,51.151 37.920,50.815 C37.920,50.815 54.354,32.387 54.354,32.387 C55.201,31.438 56.657,31.354 57.607,32.202 C58.556,33.048 58.640,34.505 57.792,35.455 C57.733,35.519 57.670,35.583 57.607,35.640 zM48.078,28.452 C48.078,28.452 35.438,47.993 35.438,47.993 C35.171,48.409 34.615,48.526 34.200,48.258 C33.816,48.010 33.685,47.516 33.882,47.114 C33.882,47.114 44.074,26.191 44.074,26.191 C44.631,25.046 46.009,24.570 47.154,25.129 C48.298,25.687 48.774,27.067 48.215,28.210 C48.177,28.290 48.126,28.380 48.078,28.452 zM31.681,44.990 C31.577,45.474 31.102,45.785 30.619,45.684 C30.183,45.592 29.888,45.200 29.905,44.770 C29.905,44.770 30.561,28.020 30.561,28.020 C30.609,26.745 31.683,25.753 32.956,25.802 C34.230,25.852 35.222,26.925 35.172,28.199 C35.167,28.327 35.149,28.463 35.124,28.583 C35.124,28.583 31.681,44.990 31.681,44.990 zM45.008,58.322 C45.008,58.322 61.408,54.877 61.408,54.877 C62.655,54.615 63.879,55.415 64.141,56.662 C64.403,57.909 63.604,59.134 62.357,59.396 C62.233,59.423 62.094,59.437 61.971,59.443 C61.971,59.443 45.228,60.098 45.228,60.098 C44.733,60.117 44.315,59.731 44.295,59.236 C44.278,58.792 44.586,58.411 45.008,58.322 z"></path></svg>
