<svg xmlns="http://www.w3.org/2000/svg"  width="90" height="90" viewbox="0 0 90 90"><path d="M58.771,79.987 C53.284,79.987 48.367,77.492 45.022,73.569 C41.581,77.623 36.588,79.987 31.255,79.987 C21.203,79.987 13.025,71.651 13.025,61.404 C13.025,53.740 20.518,44.039 25.109,44.039 C27.439,44.039 28.755,44.849 29.716,45.439 C29.781,45.479 29.829,45.506 29.888,45.542 C30.365,43.293 31.451,39.381 33.864,34.473 C37.778,26.513 49.943,21.120 50.460,20.894 C51.032,20.643 51.699,20.728 52.197,21.120 C52.694,21.510 52.944,22.145 52.852,22.777 C52.842,22.848 51.854,29.953 55.410,34.104 C58.893,38.166 59.993,42.817 60.340,45.397 C61.289,44.806 62.585,44.039 64.916,44.039 C69.578,44.039 76.999,53.521 76.999,61.404 C76.999,71.651 68.823,79.987 58.771,79.987 zM31.191,49.565 C31.156,49.564 31.120,49.563 31.085,49.560 C31.075,49.559 31.068,49.553 31.058,49.552 C29.659,49.498 28.698,48.931 27.930,48.460 C27.118,47.961 26.476,47.568 25.109,47.568 C23.010,47.568 16.485,54.921 16.485,61.404 C16.485,69.705 23.112,76.459 31.255,76.459 C35.854,76.459 40.145,74.291 42.937,70.607 C42.909,70.558 42.891,70.504 42.864,70.455 C42.519,69.828 42.206,69.182 41.934,68.514 C41.886,68.398 41.851,68.278 41.806,68.161 C41.592,67.603 41.403,67.033 41.242,66.451 C41.183,66.238 41.131,66.024 41.079,65.809 C40.955,65.293 40.855,64.768 40.775,64.235 C40.743,64.026 40.705,63.818 40.681,63.607 C40.596,62.883 40.540,62.151 40.540,61.404 C40.540,60.927 40.574,60.455 40.623,59.986 C40.628,59.943 40.635,59.899 40.641,59.855 C40.948,57.179 41.978,54.684 43.008,52.776 C40.823,49.413 38.370,47.568 37.400,47.568 C35.968,47.568 35.337,47.963 34.538,48.464 C33.750,48.958 32.771,49.572 31.255,49.572 C31.232,49.572 31.214,49.566 31.191,49.565 zM52.804,36.424 C49.897,33.031 49.292,28.442 49.255,25.413 C45.662,27.336 39.312,31.262 36.957,36.054 C35.136,39.756 34.135,42.840 33.591,44.949 C34.468,44.479 35.637,44.039 37.400,44.039 C39.924,44.039 42.811,46.597 45.036,49.621 C47.451,46.360 50.382,44.039 52.624,44.039 C54.624,44.039 55.876,44.636 56.798,45.178 C56.410,42.966 55.406,39.458 52.804,36.424 zM64.916,47.568 C63.485,47.568 62.854,47.963 62.055,48.464 C61.266,48.958 60.287,49.572 58.771,49.572 C57.254,49.572 56.251,48.954 55.447,48.460 C54.635,47.961 53.993,47.568 52.624,47.568 C51.387,47.568 48.617,50.131 46.547,53.558 C46.531,53.588 46.525,53.621 46.508,53.651 C45.312,55.663 44.520,57.691 44.186,59.534 C44.176,59.587 44.167,59.641 44.158,59.694 C44.059,60.286 44.001,60.860 44.001,61.404 C44.001,62.066 44.059,62.720 44.142,63.369 C44.164,63.538 44.190,63.705 44.218,63.872 C44.310,64.439 44.429,65.001 44.585,65.552 C44.607,65.631 44.622,65.713 44.645,65.792 C44.828,66.404 45.060,67.001 45.319,67.587 C45.386,67.736 45.458,67.883 45.529,68.030 C45.774,68.537 46.044,69.032 46.346,69.512 C48.975,73.683 53.557,76.459 58.771,76.459 C66.914,76.459 73.539,69.705 73.539,61.404 C73.539,54.921 67.016,47.568 64.916,47.568 zM37.702,23.835 C36.706,23.835 35.701,23.723 34.705,23.494 C30.115,22.438 26.446,19.150 24.887,14.698 C24.620,13.933 24.898,13.083 25.561,12.634 C29.106,10.240 33.381,9.459 37.597,10.428 C41.629,11.356 45.244,13.990 47.515,17.658 C47.954,18.364 47.844,19.286 47.256,19.866 C44.645,22.443 41.219,23.835 37.702,23.835 zM36.836,13.868 C36.834,13.868 36.834,13.868 36.834,13.868 C34.033,13.224 31.199,13.569 28.717,14.839 C30.077,17.468 32.517,19.375 35.466,20.054 C38.346,20.713 41.341,20.062 43.720,18.301 C41.951,16.068 39.507,14.482 36.836,13.868 z"></path></svg>
