<svg xmlns="http://www.w3.org/2000/svg"  width="90" height="90" viewbox="0 0 90 90"><path d="M82.026,76.008 C82.026,76.008 8.946,76.008 8.946,76.008 C7.867,76.008 6.991,75.128 6.991,74.044 C6.991,74.044 6.991,33.410 6.991,33.410 C6.991,33.385 7.004,33.364 7.005,33.338 C7.013,33.133 7.040,32.928 7.113,32.730 C7.122,32.706 7.133,32.686 7.141,32.662 C7.146,32.652 7.150,32.642 7.154,32.632 C12.920,17.105 26.402,14.124 26.975,14.003 C27.303,13.934 27.646,13.954 27.964,14.055 C27.964,14.055 82.618,31.540 82.618,31.540 C82.648,31.549 82.670,31.571 82.699,31.582 C82.803,31.621 82.891,31.680 82.986,31.735 C83.104,31.803 83.218,31.870 83.317,31.960 C83.394,32.029 83.455,32.107 83.520,32.188 C83.607,32.296 83.685,32.404 83.748,32.527 C83.794,32.619 83.828,32.711 83.860,32.810 C83.905,32.948 83.932,33.087 83.945,33.233 C83.951,33.295 83.981,33.347 83.981,33.410 C83.981,33.410 83.981,74.044 83.981,74.044 C83.981,75.128 83.105,76.008 82.026,76.008 zM27.305,17.964 C25.203,18.543 16.706,21.440 11.895,31.446 C11.895,31.446 69.447,31.446 69.447,31.446 C69.447,31.446 27.305,17.964 27.305,17.964 zM80.071,35.374 L10.901,35.374 L10.901,72.080 L80.071,72.080 L80.071,35.374 zM15.961,38.432 C15.961,38.308 16.063,38.205 16.187,38.205 C16.311,38.205 18.201,39.974 19.007,40.472 C19.814,40.971 20.981,41.685 21.602,42.059 C21.602,42.059 21.602,42.059 22.278,42.059 C22.730,42.059 22.730,42.059 22.730,42.059 C23.350,41.935 24.681,41.750 25.687,41.649 C25.687,41.649 26.114,41.606 27.016,42.059 C27.919,42.513 27.961,42.942 27.961,42.942 C28.062,43.952 28.955,44.942 29.947,45.142 C29.947,45.142 30.400,45.233 31.528,45.233 C32.431,45.233 32.431,45.233 32.431,45.233 C33.299,45.233 34.619,45.743 35.364,46.366 C35.364,46.366 35.364,46.366 35.138,47.046 C34.913,47.726 33.785,47.953 32.882,47.953 C31.303,47.953 29.983,47.953 29.983,47.953 C28.972,47.953 28.849,49.166 29.160,49.540 C29.470,49.914 27.434,50.447 26.565,50.447 C25.696,50.447 23.051,49.381 22.617,48.633 C22.183,47.885 21.551,46.009 21.489,45.573 C21.427,45.137 21.071,44.575 20.699,44.326 C20.699,44.326 20.699,44.326 20.248,44.099 C18.443,43.193 16.541,41.791 16.541,41.791 C15.726,41.191 14.957,40.597 14.833,40.472 C14.709,40.348 14.811,39.186 15.059,38.999 C15.307,38.812 15.961,38.557 15.961,38.432 zM21.445,59.653 C23.061,59.642 24.844,60.443 26.293,59.621 C26.614,59.295 26.935,58.968 27.419,58.802 C28.063,58.473 28.710,58.469 29.356,58.465 C30.002,58.460 30.972,58.454 31.620,58.775 C32.269,59.095 32.598,60.067 32.280,60.719 C31.477,61.536 29.859,61.222 29.219,62.200 C29.709,63.009 30.843,63.489 31.973,63.319 C32.134,63.156 32.457,63.154 32.780,63.152 C33.103,63.149 33.266,63.311 33.428,63.472 C34.079,64.117 34.569,64.926 35.059,65.735 C35.222,65.896 35.224,66.221 35.063,66.384 C35.063,66.384 34.740,66.386 34.740,66.386 C33.771,66.393 32.801,66.399 31.831,66.405 C31.508,66.408 31.508,66.408 31.185,66.410 C29.892,66.418 28.599,66.426 27.628,66.108 C25.845,65.308 24.698,62.879 22.757,62.567 C22.271,62.408 21.464,62.576 20.818,62.580 C19.527,62.913 18.074,63.085 16.620,63.257 C16.620,63.257 16.458,63.096 16.458,63.096 C16.297,63.259 15.811,63.100 15.648,62.938 C17.254,61.304 19.183,59.668 21.445,59.653 zM45.056,52.561 C44.955,52.114 44.854,51.666 44.976,51.167 C45.048,50.444 45.393,49.895 45.738,49.346 C46.082,48.796 46.600,47.972 47.218,47.596 C47.836,47.220 48.829,47.465 49.203,48.087 C49.455,49.206 49.079,49.303 49.554,50.372 C50.497,50.393 50.751,50.795 51.217,49.747 C51.167,49.523 51.339,49.249 51.512,48.974 C51.684,48.699 51.907,48.649 52.130,48.598 C53.022,48.395 52.126,48.416 53.068,48.438 C53.291,48.387 53.564,48.560 53.614,48.784 C53.614,48.784 53.442,49.059 53.442,49.059 C52.925,49.883 52.407,50.707 51.890,51.531 C51.718,51.805 51.718,51.805 51.545,52.080 C50.855,53.179 57.518,54.362 56.727,55.012 C55.095,56.090 46.928,55.668 45.619,57.142 C45.224,57.467 44.930,58.241 44.585,58.790 C44.168,60.062 43.576,61.289 42.936,62.611 C42.936,62.611 42.926,62.913 42.926,62.913 C42.976,63.137 42.322,63.308 42.099,63.358 C41.594,61.118 41.262,58.604 42.469,56.682 C43.332,55.308 44.963,54.231 45.056,52.561 zM58.729,42.345 C59.631,41.986 60.532,41.627 61.434,41.268 C61.734,41.149 61.734,41.149 62.035,41.029 C63.236,40.551 64.438,40.073 65.459,40.016 C67.409,40.113 69.354,41.959 71.276,41.543 C71.786,41.515 72.478,41.065 73.078,40.826 C74.162,40.045 75.454,39.356 76.747,38.667 C76.747,38.667 76.957,38.758 76.957,38.758 C77.047,38.547 77.558,38.519 77.767,38.610 C76.860,40.718 75.652,42.945 73.549,43.782 C72.046,44.380 70.096,44.283 69.041,45.576 C68.860,45.998 68.679,46.419 68.287,46.749 C67.805,47.291 67.204,47.530 66.603,47.769 C66.002,48.008 65.101,48.367 64.381,48.304 C63.661,48.242 63.003,47.455 63.066,46.732 C63.519,45.678 65.141,45.382 65.385,44.237 C64.636,43.662 63.406,43.627 62.414,44.197 C62.323,44.407 62.023,44.527 61.722,44.647 C61.422,44.766 61.212,44.675 61.002,44.584 C60.163,44.219 59.415,43.644 58.667,43.068 C58.457,42.977 58.338,42.675 58.429,42.465 C58.429,42.465 58.729,42.345 58.729,42.345 zM61.256,62.582 C62.329,62.234 62.726,62.106 62.726,62.106 C63.688,61.794 63.626,60.540 63.301,60.252 C62.976,59.964 64.196,59.009 64.786,58.818 C65.376,58.627 67.499,59.058 68.023,59.674 C68.547,60.290 69.549,61.937 69.725,62.338 C69.900,62.740 70.313,63.196 70.642,63.351 C70.642,63.351 70.642,63.351 71.018,63.467 C72.521,63.933 73.958,64.697 73.958,64.697 C74.851,65.172 75.682,65.635 75.805,65.727 C75.927,65.818 76.213,66.946 76.102,67.179 C75.990,67.411 75.624,67.798 75.662,67.917 C75.700,68.036 75.662,68.155 75.578,68.182 C75.494,68.210 73.669,66.943 72.969,66.646 C72.269,66.349 71.257,65.927 70.721,65.707 C70.721,65.707 70.721,65.707 70.262,65.856 C69.955,65.956 69.955,65.956 69.955,65.956 C69.572,66.211 68.599,66.740 67.794,67.133 C67.794,67.133 67.794,67.133 67.043,66.900 C66.291,66.667 66.133,66.272 66.133,66.272 C65.754,65.330 64.693,64.589 63.774,64.624 C63.774,64.624 63.774,64.624 63.007,64.873 C62.394,65.072 62.394,65.072 62.394,65.072 C61.804,65.263 60.751,65.068 60.055,64.639 C60.055,64.639 60.055,64.639 60.001,63.942 C59.946,63.245 60.643,62.781 61.256,62.582 z"></path></svg>
