<svg xmlns="http://www.w3.org/2000/svg"  width="90" height="90" viewbox="0 0 90 90"><path d="M80.179,51.136 C81.192,51.187 81.987,52.021 81.987,53.033 C81.987,53.033 81.987,72.110 81.987,72.110 C81.987,73.158 81.134,74.010 80.083,74.010 C80.083,74.010 8.897,74.010 8.897,74.010 C7.846,74.010 6.993,73.158 6.993,72.110 C6.993,72.110 6.993,32.801 6.993,32.801 C6.993,32.777 7.006,32.756 7.007,32.732 C7.014,32.533 7.041,32.335 7.112,32.143 C7.120,32.121 7.131,32.101 7.139,32.078 C7.143,32.068 7.148,32.058 7.152,32.048 C12.770,17.025 25.900,14.142 26.459,14.027 C26.780,13.960 27.111,13.980 27.422,14.077 C27.422,14.077 80.660,30.992 80.660,30.992 C80.689,31.001 80.710,31.023 80.738,31.033 C80.840,31.071 80.925,31.128 81.018,31.181 C81.133,31.247 81.244,31.312 81.341,31.398 C81.416,31.465 81.475,31.541 81.538,31.619 C81.623,31.723 81.699,31.828 81.760,31.947 C81.806,32.036 81.839,32.125 81.870,32.221 C81.914,32.354 81.940,32.488 81.953,32.631 C81.958,32.690 81.987,32.741 81.987,32.801 C81.987,32.801 81.987,39.014 81.987,39.014 C81.987,40.026 81.192,40.860 80.179,40.910 C77.444,41.048 75.302,43.294 75.302,46.023 C75.302,48.753 77.444,50.998 80.179,51.136 zM26.780,17.859 C24.735,18.419 16.456,21.221 11.770,30.901 C11.770,30.901 67.830,30.901 67.830,30.901 C67.830,30.901 26.780,17.859 26.780,17.859 zM78.179,37.392 C78.179,37.392 78.179,34.702 78.179,34.702 L10.801,34.702 L10.801,70.209 L78.179,70.209 C78.179,70.209 78.179,54.654 78.179,54.654 C74.314,53.652 71.494,50.156 71.494,46.023 C71.494,41.889 74.314,38.392 78.179,37.392 zM69.264,68.145 C67.592,68.145 66.237,66.793 66.237,65.124 C66.237,63.456 67.592,62.104 69.264,62.104 C70.935,62.104 72.290,63.456 72.290,65.124 C72.290,66.793 70.935,68.145 69.264,68.145 zM60.328,53.706 C58.119,53.706 56.329,51.919 56.329,49.715 C56.329,47.511 58.119,45.725 60.328,45.725 C62.536,45.725 64.327,47.511 64.327,49.715 C64.327,51.919 62.536,53.706 60.328,53.706 zM38.335,64.367 C34.330,64.367 31.083,61.127 31.083,57.131 C31.083,53.134 34.330,49.894 38.335,49.894 C42.340,49.894 45.586,53.134 45.586,57.131 C45.586,61.127 42.340,64.367 38.335,64.367 zM23.086,46.082 C20.877,46.082 19.087,44.296 19.087,42.092 C19.087,39.888 20.877,38.101 23.086,38.101 C25.294,38.101 27.085,39.888 27.085,42.092 C27.085,44.296 25.294,46.082 23.086,46.082 z"></path></svg>
