<svg xmlns="http://www.w3.org/2000/svg"  width="90" height="90" viewbox="0 0 90 90"><path d="M81.805,36.508 C81.380,24.970 65.642,15.995 45.587,15.995 C25.964,15.995 10.468,23.944 9.271,34.307 C9.102,34.585 8.979,34.893 8.979,35.242 C8.979,35.242 8.979,54.378 8.979,54.378 C8.979,65.365 24.983,73.973 45.412,73.973 C50.709,73.973 55.468,73.460 59.954,72.405 C61.461,72.380 62.441,71.848 62.441,60.346 C62.441,59.648 62.433,58.973 62.422,58.316 C62.422,58.316 80.164,58.316 80.164,58.316 C81.189,58.316 82.020,57.487 82.020,56.466 C82.020,56.466 82.020,37.330 82.020,37.330 C82.020,37.031 81.932,36.759 81.805,36.508 zM45.587,19.696 C62.356,19.696 76.204,26.467 77.947,35.132 C77.947,35.132 45.587,35.132 45.587,35.132 C44.838,35.132 44.163,35.580 43.874,36.268 C43.585,36.956 43.740,37.751 44.266,38.281 C44.266,38.281 56.024,50.138 56.024,50.138 C52.436,50.804 48.937,51.137 45.412,51.137 C27.589,51.137 13.083,44.102 12.885,35.420 C13.083,26.878 27.969,19.696 45.587,19.696 zM58.344,68.977 C54.361,69.848 50.119,70.273 45.412,70.273 C27.676,70.273 12.692,62.995 12.692,54.378 C12.692,54.378 12.692,44.102 12.692,44.102 C18.484,50.706 30.854,55.185 45.525,55.183 C45.890,55.195 46.251,55.200 46.608,55.200 C50.966,55.200 54.782,54.336 58.469,53.450 C58.854,56.994 58.801,66.077 58.344,68.977 zM62.276,54.616 C62.260,54.379 62.246,54.124 62.228,53.908 C62.098,52.328 61.929,50.464 60.837,49.730 C60.837,49.730 50.029,38.832 50.029,38.832 L78.307,38.832 L78.307,54.616 C78.307,54.616 62.276,54.616 62.276,54.616 z"></path></svg>
