<svg xmlns="http://www.w3.org/2000/svg"  width="90" height="90" viewbox="0 0 90 90"><path d="M86.372,75.696 C86.096,76.471 85.369,76.989 84.556,76.989 C84.556,76.989 61.232,76.989 61.232,76.989 C60.419,76.989 59.692,76.471 59.415,75.696 C59.010,74.556 58.804,73.386 58.804,72.214 C58.804,65.617 65.125,60.249 72.894,60.249 C80.663,60.249 86.985,65.617 86.985,72.214 C86.985,73.384 86.779,74.554 86.372,75.696 zM72.894,64.164 C67.254,64.164 62.666,67.776 62.666,72.214 C62.666,72.500 62.687,72.788 62.727,73.073 C62.727,73.073 83.061,73.073 83.061,73.073 C83.102,72.788 83.122,72.500 83.122,72.214 C83.122,67.776 78.534,64.164 72.894,64.164 zM15.295,39.925 C15.295,37.655 17.111,35.815 19.351,35.815 C21.592,35.815 23.408,37.655 23.408,39.925 C23.408,42.196 21.592,44.036 19.351,44.036 C17.111,44.036 15.295,42.196 15.295,39.925 zM27.465,55.418 C27.465,51.301 30.759,47.963 34.822,47.963 C38.885,47.963 42.179,51.301 42.179,55.418 C42.179,59.535 38.885,62.872 34.822,62.872 C30.759,62.872 27.465,59.535 27.465,55.418 zM53.078,47.779 C53.078,45.509 54.895,43.668 57.135,43.668 C59.376,43.668 61.192,45.509 61.192,47.779 C61.192,50.049 59.376,51.890 57.135,51.890 C54.895,51.890 53.078,50.049 53.078,47.779 zM77.177,59.292 C76.111,59.292 75.246,58.415 75.246,57.335 C75.246,57.335 75.246,52.866 75.246,52.866 C71.325,51.836 68.465,48.233 68.465,43.975 C68.465,43.493 68.529,43.018 68.634,42.556 C63.947,41.416 60.248,37.299 59.455,32.312 C59.455,32.312 55.808,32.312 55.808,32.312 L6.887,32.312 L6.887,68.890 C6.887,68.890 55.411,68.890 55.411,68.890 C56.477,68.890 57.342,69.767 57.342,70.848 C57.342,71.928 56.477,72.806 55.411,72.806 C55.411,72.806 4.956,72.806 4.956,72.806 C3.890,72.806 3.025,71.928 3.025,70.848 C3.025,70.848 3.025,30.354 3.025,30.354 C3.025,30.331 3.038,30.312 3.038,30.289 C3.045,30.082 3.072,29.875 3.145,29.676 C3.154,29.651 3.165,29.630 3.174,29.605 C3.178,29.597 3.181,29.589 3.184,29.581 C8.884,14.104 22.208,11.133 22.774,11.013 C23.105,10.943 23.449,10.964 23.770,11.071 C23.770,11.071 65.309,24.929 65.309,24.929 C66.187,25.222 66.737,26.104 66.621,27.034 C66.504,27.963 65.753,28.679 64.831,28.740 C64.830,28.740 63.906,28.819 62.807,29.281 C62.849,29.346 62.870,29.421 62.904,29.490 C62.934,29.552 62.964,29.609 62.987,29.674 C63.068,29.891 63.123,30.117 63.123,30.354 C63.123,35.019 66.849,38.958 71.259,38.958 C71.911,38.958 72.519,39.292 72.875,39.846 C73.232,40.397 73.289,41.095 73.028,41.701 C72.765,42.307 72.327,43.320 72.327,43.975 C72.327,46.786 74.500,49.100 77.274,49.242 C78.302,49.294 79.108,50.153 79.108,51.196 C79.108,51.196 79.108,57.335 79.108,57.335 C79.108,58.415 78.244,59.292 77.177,59.292 zM23.091,14.964 C20.999,15.547 12.619,18.443 7.872,28.396 C7.872,28.396 55.808,28.396 55.808,28.396 C55.808,28.396 58.522,28.396 58.522,28.396 C58.602,28.001 58.789,27.500 59.212,27.016 C59.212,27.016 23.091,14.964 23.091,14.964 z"></path></svg>
