<svg xmlns="http://www.w3.org/2000/svg"  width="90" height="90" viewbox="0 0 90 90"><path d="M76.908,17.041 C76.649,18.636 75.798,20.044 74.507,21.013 C73.441,21.814 72.180,22.234 70.885,22.234 C70.589,22.234 70.292,22.212 69.995,22.168 C69.806,22.140 69.639,22.065 69.480,21.981 C68.862,23.342 68.110,24.653 67.199,25.885 C64.369,29.713 60.438,32.398 55.955,33.666 C56.815,34.243 57.646,34.883 58.429,35.607 C59.236,35.477 60.058,35.391 60.882,35.355 C67.899,35.037 73.307,37.913 73.491,42.045 C73.634,45.253 70.571,48.030 65.719,49.245 C66.048,50.987 66.216,52.774 66.216,54.576 C66.216,58.660 62.540,68.538 59.894,71.537 C59.894,71.537 59.975,71.585 59.975,71.585 C59.710,72.050 53.391,82.999 45.734,82.999 C38.076,82.999 31.757,72.050 31.492,71.585 C31.258,71.183 25.562,61.330 25.562,54.576 C25.562,52.830 25.720,51.093 26.034,49.393 C20.916,48.225 17.584,45.321 17.758,42.004 C17.975,37.872 23.433,35.054 30.415,35.407 C31.359,35.457 32.297,35.569 33.214,35.741 C33.803,35.186 34.423,34.689 35.056,34.219 C28.334,32.651 23.053,27.976 20.471,21.991 C20.319,22.068 20.162,22.142 19.984,22.168 C19.687,22.212 19.389,22.234 19.094,22.234 C17.797,22.234 16.536,21.813 15.468,21.012 C14.178,20.042 13.330,18.635 13.071,17.039 C12.998,16.758 12.998,16.538 12.998,16.396 C12.998,15.483 13.734,14.741 14.640,14.741 C15.527,14.741 16.248,15.449 16.281,16.334 C16.289,16.372 16.296,16.410 16.301,16.448 C16.411,17.217 16.812,17.895 17.430,18.360 C18.017,18.799 18.724,18.982 19.432,18.898 C18.666,15.947 18.500,12.792 19.104,9.603 C19.118,9.532 19.136,9.460 19.159,9.392 C19.212,9.234 19.234,9.101 19.260,8.969 C19.311,8.711 19.365,8.453 19.469,8.143 C19.759,7.276 20.688,6.807 21.548,7.100 C22.407,7.390 22.870,8.328 22.582,9.194 C22.529,9.354 22.505,9.486 22.480,9.620 C22.436,9.842 22.389,10.064 22.311,10.319 C20.533,19.975 26.865,29.316 36.467,31.165 C37.484,31.361 38.496,31.446 39.497,31.464 C38.906,31.103 38.323,30.722 37.761,30.300 C33.244,26.910 30.300,21.962 29.459,16.355 C29.266,15.709 29.266,15.217 29.266,14.738 C29.266,13.825 30.002,13.083 30.908,13.083 C31.815,13.083 32.551,13.825 32.551,14.738 C32.551,15.158 32.552,15.253 32.620,15.457 C32.652,15.551 32.674,15.647 32.688,15.746 C33.377,20.531 35.874,24.758 39.723,27.648 C41.495,28.978 43.452,29.931 45.503,30.514 C51.313,28.511 55.944,23.535 57.223,17.045 C57.236,16.769 57.280,16.525 57.327,16.282 C57.347,16.188 57.372,16.095 57.372,15.983 C57.372,15.070 58.108,14.328 59.015,14.328 C59.921,14.328 60.657,15.070 60.657,15.983 C60.657,16.337 60.606,16.633 60.548,16.928 C60.529,17.022 60.503,17.115 60.503,17.228 C60.503,17.332 60.492,17.436 60.473,17.539 C59.381,23.289 56.072,28.053 51.614,31.109 C51.993,31.078 52.373,31.054 52.753,30.998 C57.505,30.303 61.699,27.787 64.566,23.908 C67.389,20.091 68.570,15.428 67.891,10.776 C67.879,10.697 67.873,10.617 67.873,10.536 C67.873,10.463 67.850,10.386 67.755,10.120 C67.755,10.120 67.650,9.817 67.650,9.817 C67.362,8.951 67.825,8.013 68.684,7.723 C69.543,7.439 70.473,7.899 70.763,8.766 C70.763,8.766 70.845,9.001 70.845,9.001 C70.974,9.364 71.133,9.810 71.155,10.399 C71.561,13.282 71.352,16.161 70.596,18.900 C71.287,18.971 71.975,18.789 72.547,18.360 C73.165,17.896 73.566,17.217 73.678,16.448 C73.684,16.401 73.693,16.355 73.703,16.310 C73.780,15.463 74.485,14.775 75.338,14.775 C75.343,14.775 75.349,14.775 75.353,14.775 C76.254,14.784 76.980,15.489 76.980,16.396 C76.980,16.538 76.980,16.758 76.908,17.041 zM50.184,34.496 C48.626,34.495 47.085,34.307 45.579,33.957 C44.076,34.393 42.517,34.656 40.922,34.743 C38.732,35.555 36.677,36.882 34.905,38.700 C34.504,39.112 33.915,39.283 33.363,39.151 C32.355,38.916 31.303,38.767 30.243,38.711 C29.887,38.692 29.540,38.683 29.201,38.683 C24.229,38.683 21.116,40.636 21.036,42.177 C20.955,43.733 23.825,45.815 28.228,46.435 C28.690,46.501 29.103,46.760 29.362,47.149 C29.623,47.540 29.706,48.023 29.592,48.479 C29.096,50.456 28.845,52.508 28.845,54.576 C28.845,60.429 34.276,69.830 34.332,69.924 C35.888,72.651 40.954,79.689 45.734,79.689 C50.527,79.689 55.584,72.651 57.128,69.938 C57.188,69.833 57.259,69.736 57.337,69.648 C58.251,68.336 62.931,59.795 62.931,54.576 C62.931,52.461 62.673,50.373 62.163,48.373 C62.049,47.922 62.127,47.444 62.379,47.055 C62.633,46.666 63.037,46.402 63.492,46.327 C67.725,45.640 70.277,43.647 70.212,42.194 C70.138,40.548 66.599,38.419 61.029,38.659 C60.082,38.703 59.140,38.820 58.227,39.007 C57.687,39.110 57.131,38.948 56.742,38.557 C54.821,36.629 52.575,35.252 50.184,34.496 zM61.755,53.643 C61.755,55.792 60.027,57.533 57.895,57.533 C55.763,57.533 54.034,55.792 54.034,53.643 C54.034,51.494 55.763,49.752 57.895,49.752 C60.027,49.752 61.755,51.494 61.755,53.643 zM45.888,72.940 C44.046,72.940 40.723,70.682 40.013,69.551 C39.352,68.499 40.154,67.649 41.162,67.649 C42.171,67.649 48.983,67.649 50.150,67.649 C51.316,67.649 52.257,68.712 51.323,69.875 C50.336,71.103 47.731,72.940 45.888,72.940 zM33.997,57.533 C31.865,57.533 30.136,55.792 30.136,53.643 C30.136,51.494 31.865,49.752 33.997,49.752 C36.129,49.752 37.858,51.494 37.858,53.643 C37.858,55.792 36.129,57.533 33.997,57.533 z"></path></svg>
