<svg xmlns="http://www.w3.org/2000/svg"  width="90" height="90" viewbox="0 0 90 90"><path d="M77.484,22.942 C77.484,22.942 69.347,32.296 69.347,32.296 C69.388,32.350 69.433,32.395 69.474,32.450 C77.088,42.869 70.996,49.707 68.394,52.628 C65.685,55.670 59.204,61.420 46.254,65.742 C27.576,71.975 19.158,73.983 15.242,73.983 C13.862,73.983 13.042,73.734 12.526,73.332 C12.198,73.077 12.005,72.684 12.003,72.267 C11.999,71.850 12.186,71.455 12.512,71.195 C12.630,71.101 24.421,61.654 31.242,55.518 C34.601,52.494 38.227,47.437 41.735,42.548 C45.274,37.612 48.616,32.951 51.374,30.917 C55.581,27.812 61.486,26.820 65.991,29.353 C65.991,29.353 73.585,19.149 73.585,19.149 C74.341,18.280 76.420,19.221 77.285,19.981 C78.150,20.740 78.240,22.073 77.484,22.942 zM58.046,30.857 C56.241,31.221 54.477,32.000 52.975,33.108 C50.563,34.889 47.341,39.381 43.930,44.136 C40.339,49.144 36.625,54.323 33.046,57.543 C28.133,61.965 20.680,68.073 16.781,71.237 C20.333,70.792 28.214,68.898 45.402,63.162 C58.218,58.885 64.341,53.102 66.378,50.815 C68.538,48.390 72.266,44.172 69.363,37.601 C69.363,37.601 58.046,30.857 58.046,30.857 zM38.708,43.048 C38.528,43.778 37.795,44.216 37.070,44.042 C36.344,43.861 35.901,43.125 36.081,42.397 C36.093,42.348 37.278,37.502 37.453,34.484 C37.950,25.921 33.547,21.835 30.468,20.040 C32.008,23.864 32.258,29.825 25.822,37.472 C24.583,38.945 24.139,40.432 24.467,42.017 C24.918,44.195 26.770,46.252 28.626,47.715 C27.852,44.222 27.263,38.965 32.001,35.052 C32.578,34.575 33.433,34.660 33.905,35.240 C34.380,35.819 34.297,36.676 33.719,37.153 C29.627,40.532 30.802,45.287 31.580,48.435 C31.790,49.284 31.955,49.954 31.998,50.525 C32.036,51.012 31.811,51.482 31.408,51.756 C31.181,51.911 30.916,51.989 30.650,51.990 C30.446,51.990 30.241,51.942 30.051,51.849 C27.618,50.642 22.767,47.149 21.818,42.571 C21.316,40.146 21.969,37.841 23.756,35.717 C28.416,30.179 29.792,24.934 27.735,20.546 C27.284,19.581 27.494,18.439 28.257,17.704 C29.016,16.967 30.161,16.800 31.101,17.290 C34.748,19.185 40.775,23.960 40.155,34.643 C39.965,37.913 38.759,42.840 38.708,43.048 z"></path></svg>
