<svg xmlns="http://www.w3.org/2000/svg"  width="90" height="90" viewbox="0 0 90 90"><path d="M81.979,53.156 C81.979,53.156 81.979,53.450 81.979,53.450 C81.979,56.567 79.645,59.139 76.604,59.627 C76.611,59.804 76.598,59.984 76.539,60.161 C73.674,68.694 65.451,73.996 55.079,73.996 C55.079,73.996 35.672,73.996 35.672,73.996 C25.300,73.996 17.077,68.694 14.213,60.161 C14.162,60.009 14.159,59.856 14.157,59.704 C10.744,59.570 8.004,56.828 8.004,53.450 C8.004,53.450 8.004,53.156 8.004,53.156 C8.004,50.141 10.184,47.620 13.080,47.017 C13.080,47.017 13.080,42.068 13.080,42.068 C11.778,41.128 10.741,39.835 10.149,38.292 C9.778,38.375 9.308,38.386 8.845,38.070 C8.115,37.568 8.115,36.704 8.115,36.336 C8.115,36.336 8.115,36.042 8.115,36.042 C8.115,32.666 10.898,29.921 14.333,29.878 C14.323,29.684 14.349,29.486 14.420,29.292 C17.422,21.102 25.566,16.012 35.672,16.012 C35.672,16.012 55.079,16.012 55.079,16.012 C65.185,16.012 73.328,21.102 76.331,29.292 C76.411,29.512 76.426,29.735 76.404,29.953 C79.480,30.357 81.868,32.919 81.868,36.042 C81.868,36.042 81.868,36.336 81.868,36.336 C81.868,36.655 81.868,37.624 80.953,38.019 C80.768,38.099 80.541,38.153 80.271,38.140 C79.751,39.582 78.831,40.811 77.671,41.756 C77.671,41.756 77.671,47.251 77.671,47.251 C80.170,48.108 81.979,50.417 81.979,53.156 zM35.672,70.948 C35.672,70.948 55.079,70.948 55.079,70.948 C63.841,70.948 70.790,66.660 73.382,59.730 C73.382,59.730 17.369,59.730 17.369,59.730 C19.961,66.660 26.910,70.948 35.672,70.948 zM55.079,19.062 C55.079,19.062 35.672,19.062 35.672,19.062 C26.978,19.062 20.246,23.096 17.536,29.870 C17.536,29.870 73.215,29.870 73.215,29.870 C70.505,23.096 63.773,19.062 55.079,19.062 zM77.867,36.360 C77.913,36.118 78.024,35.892 78.190,35.706 C78.440,35.424 78.703,35.251 78.949,35.146 C78.547,33.688 77.184,32.612 75.570,32.612 C75.570,32.612 14.412,32.612 14.412,32.612 C12.684,32.612 11.243,33.847 10.962,35.464 C11.333,35.531 11.737,35.700 12.141,36.043 C12.355,36.225 12.508,36.468 12.579,36.738 C13.229,39.222 15.498,40.956 18.098,40.956 C20.308,40.956 22.340,39.676 23.277,37.693 C23.506,37.209 24.001,36.898 24.546,36.898 C24.546,36.898 25.187,36.898 25.187,36.898 C25.733,36.898 26.228,37.209 26.457,37.693 C27.393,39.676 29.427,40.956 31.636,40.956 C33.846,40.956 35.879,39.676 36.816,37.693 C37.044,37.209 37.540,36.898 38.085,36.898 C38.085,36.898 38.726,36.898 38.726,36.898 C39.271,36.898 39.766,37.209 39.995,37.693 C40.932,39.676 42.965,40.956 45.175,40.956 C47.385,40.956 49.417,39.676 50.354,37.693 C50.583,37.209 51.078,36.898 51.623,36.898 C51.623,36.898 52.264,36.898 52.264,36.898 C52.810,36.898 53.305,37.209 53.534,37.693 C54.471,39.676 56.504,40.956 58.714,40.956 C60.923,40.956 62.956,39.676 63.893,37.693 C64.121,37.209 64.617,36.898 65.162,36.898 C65.162,36.898 65.803,36.898 65.803,36.898 C66.348,36.898 66.844,37.209 67.072,37.693 C68.009,39.676 70.042,40.956 72.252,40.956 C75.010,40.956 77.372,39.024 77.867,36.360 zM16.192,43.461 C16.192,43.461 16.192,46.876 16.192,46.876 L74.559,46.876 C74.559,46.876 74.559,43.367 74.559,43.367 C73.821,43.572 73.051,43.698 72.252,43.698 C69.576,43.698 67.074,42.441 65.483,40.389 C63.891,42.441 61.391,43.698 58.714,43.698 C56.037,43.698 53.536,42.441 51.944,40.389 C50.353,42.441 47.852,43.698 45.175,43.698 C42.499,43.698 39.997,42.441 38.406,40.389 C36.814,42.441 34.314,43.698 31.636,43.698 C28.960,43.698 26.459,42.441 24.867,40.389 C23.276,42.441 20.775,43.698 18.098,43.698 C17.443,43.698 16.810,43.602 16.192,43.461 zM75.570,49.834 C75.570,49.834 14.412,49.834 14.412,49.834 C12.543,49.834 11.023,51.324 11.023,53.156 C11.023,53.156 11.023,53.450 11.023,53.450 C11.023,55.282 12.543,56.772 14.412,56.772 C14.412,56.772 75.570,56.772 75.570,56.772 C77.439,56.772 78.960,55.282 78.960,53.450 C78.960,53.450 78.960,53.156 78.960,53.156 C78.960,51.324 77.439,49.834 75.570,49.834 zM31.407,22.996 C32.586,22.996 33.541,23.932 33.541,25.087 C33.541,26.242 32.586,27.178 31.407,27.178 C30.228,27.178 29.273,26.242 29.273,25.087 C29.273,23.932 30.228,22.996 31.407,22.996 zM37.262,20.128 C38.440,20.128 39.396,21.064 39.396,22.219 C39.396,23.374 38.440,24.310 37.262,24.310 C36.083,24.310 35.127,23.374 35.127,22.219 C35.127,21.064 36.083,20.128 37.262,20.128 zM48.971,22.996 C50.149,22.996 51.105,23.932 51.105,25.087 C51.105,26.242 50.149,27.178 48.971,27.178 C47.792,27.178 46.836,26.242 46.836,25.087 C46.836,23.932 47.792,22.996 48.971,22.996 zM62.143,21.562 C63.322,21.562 64.278,22.498 64.278,23.653 C64.278,24.808 63.322,25.744 62.143,25.744 C60.964,25.744 60.009,24.808 60.009,23.653 C60.009,22.498 60.964,21.562 62.143,21.562 zM65.070,65.899 C63.891,65.899 62.936,64.963 62.936,63.808 C62.936,62.652 63.891,61.716 65.070,61.716 C66.249,61.716 67.205,62.652 67.205,63.808 C67.205,64.963 66.249,65.899 65.070,65.899 zM48.971,70.201 C47.792,70.201 46.836,69.265 46.836,68.110 C46.836,66.955 47.792,66.019 48.971,66.019 C50.149,66.019 51.105,66.955 51.105,68.110 C51.105,69.265 50.149,70.201 48.971,70.201 zM34.334,65.899 C33.155,65.899 32.200,64.963 32.200,63.808 C32.200,62.652 33.155,61.716 34.334,61.716 C35.513,61.716 36.469,62.652 36.469,63.808 C36.469,64.963 35.513,65.899 34.334,65.899 zM27.016,67.333 C25.837,67.333 24.882,66.397 24.882,65.242 C24.882,64.087 25.837,63.150 27.016,63.150 C28.195,63.150 29.151,64.087 29.151,65.242 C29.151,66.397 28.195,67.333 27.016,67.333 z"></path></svg>
