<svg xmlns="http://www.w3.org/2000/svg"  width="90" height="90" viewbox="0 0 90 90"><path d="M84.730,55.910 C80.765,60.022 74.322,63.066 66.865,64.548 C66.842,64.551 66.823,64.565 66.800,64.567 C66.784,64.569 66.769,64.569 66.754,64.569 C63.695,65.170 60.471,65.516 57.172,65.554 C57.141,65.554 57.010,65.550 56.971,65.549 C55.263,65.467 53.508,65.382 51.812,65.230 C50.648,66.899 48.906,68.454 46.875,69.611 C44.344,71.142 41.538,71.987 39.141,71.987 C38.417,71.987 37.732,71.910 37.102,71.750 C35.620,71.380 34.477,70.577 33.795,69.431 C32.436,66.937 33.331,63.669 35.931,60.842 C31.578,58.668 28.391,55.901 26.615,52.734 C26.615,52.734 26.436,52.559 26.436,52.559 C25.526,51.669 24.347,50.948 23.113,50.502 C22.377,52.220 21.267,53.937 19.753,55.707 C16.704,59.221 12.809,61.535 9.580,61.757 C7.889,61.867 6.428,61.426 5.333,60.471 C2.089,57.631 3.215,51.349 7.930,45.752 C2.548,40.983 0.498,35.057 3.141,31.671 C6.090,28.291 12.571,29.336 18.283,34.015 C19.985,35.440 21.344,36.937 22.340,38.484 C24.905,38.772 27.536,37.843 29.410,37.039 C32.712,33.573 37.639,30.834 43.541,29.155 C41.408,26.466 40.840,23.665 42.141,21.527 C42.758,20.433 43.856,19.619 45.288,19.233 C47.973,18.500 51.690,19.312 55.240,21.386 C57.973,23.081 60.031,25.188 61.095,27.330 C71.392,27.948 80.341,31.405 85.203,36.684 C87.820,39.526 89.126,42.805 88.978,46.169 C89.067,49.521 87.597,52.935 84.730,55.910 zM62.028,31.222 C61.265,31.158 60.498,31.104 59.721,31.075 C58.912,31.044 58.211,30.505 57.973,29.730 C57.461,28.053 55.704,26.153 53.277,24.648 C50.356,22.941 47.653,22.537 46.282,22.907 C45.851,23.024 45.562,23.208 45.424,23.453 C44.861,24.378 45.889,26.620 48.473,28.726 C49.043,29.190 49.295,29.942 49.120,30.655 C48.945,31.371 48.375,31.920 47.655,32.067 C40.870,33.459 35.288,36.243 31.936,39.911 C31.760,40.105 31.543,40.259 31.303,40.365 C29.013,41.380 25.543,42.674 21.921,42.268 C21.723,42.256 21.499,42.225 21.277,42.183 C20.585,42.142 19.858,41.789 19.519,41.175 C18.735,39.760 17.468,38.298 15.854,36.948 C11.496,33.377 7.146,32.871 6.075,34.095 C5.141,35.295 6.395,39.382 10.707,43.129 C10.908,43.321 11.050,43.409 11.185,43.503 C11.496,43.720 11.802,43.944 12.069,44.206 C12.816,44.941 12.830,46.141 12.099,46.893 C12.099,46.893 10.970,48.049 10.970,48.049 C7.354,52.218 6.671,56.583 7.839,57.605 C8.157,57.885 8.652,58.011 9.318,57.958 C11.542,57.806 14.505,55.947 16.870,53.222 C18.526,51.286 19.576,49.477 20.075,47.708 C20.309,46.875 21.066,46.319 21.905,46.319 C22.008,46.319 22.111,46.328 22.216,46.345 C24.746,46.761 27.251,48.033 29.094,49.833 C29.094,49.833 29.475,50.207 29.475,50.207 C29.616,50.343 29.735,50.502 29.828,50.677 C31.459,53.745 35.106,56.538 40.097,58.541 C40.739,58.798 41.192,59.384 41.277,60.069 C41.363,60.755 41.071,61.435 40.513,61.843 C37.473,64.069 36.580,66.587 37.102,67.550 C37.258,67.807 37.695,67.975 38.027,68.058 C39.454,68.415 42.148,68.020 44.948,66.329 C46.830,65.255 48.378,63.770 49.130,62.334 C49.494,61.640 50.239,61.246 51.029,61.325 C52.969,61.545 55.095,61.647 57.153,61.745 C59.703,61.716 62.201,61.496 64.592,61.108 C64.592,61.108 62.028,31.222 62.028,31.222 zM82.404,39.264 C79.033,35.604 72.986,32.894 65.891,31.707 C65.891,31.707 68.348,60.339 68.348,60.339 C74.075,58.907 78.924,56.448 81.990,53.267 C84.165,51.010 85.237,48.610 85.175,46.132 C85.280,43.641 84.348,41.375 82.404,39.264 zM72.175,48.624 C70.278,46.770 70.244,43.729 72.097,41.831 C73.951,39.934 76.991,39.899 78.887,41.753 C80.784,43.608 80.818,46.649 78.965,48.546 C77.111,50.444 74.071,50.478 72.175,48.624 z"></path></svg>
