<svg xmlns="http://www.w3.org/2000/svg"  width="90" height="90" viewbox="0 0 90 90"><path d="M70.876,38.325 C70.864,38.335 70.861,38.351 70.849,38.361 C70.844,38.366 70.837,38.367 70.832,38.372 C68.516,40.884 65.888,43.420 63.003,45.875 C62.989,45.886 62.885,45.969 62.871,45.980 C61.411,47.135 59.907,48.326 58.413,49.411 C58.136,50.979 57.328,52.861 56.170,54.600 C54.078,58.163 50.396,61.971 47.491,62.219 C47.083,62.245 46.657,62.118 46.343,61.839 C46.028,61.561 45.842,61.168 45.826,60.749 C45.826,60.749 45.700,57.234 45.700,57.234 C41.320,59.258 38.020,60.113 35.486,59.926 C35.377,59.961 35.247,59.994 35.101,60.009 C34.016,60.248 32.528,60.898 31.050,61.769 C31.131,62.960 30.909,64.435 30.377,66.298 C28.922,71.309 25.303,75.888 22.100,76.797 C21.719,76.942 21.416,76.980 21.124,76.980 C21.008,76.980 20.894,76.974 20.777,76.966 C20.338,76.936 19.932,76.718 19.664,76.370 C19.396,76.023 19.292,75.577 19.377,75.145 C19.377,75.145 21.169,66.044 21.169,66.044 C18.557,66.282 13.972,66.727 10.751,67.188 C10.225,67.271 9.709,67.066 9.366,66.670 C9.025,66.272 8.910,65.727 9.064,65.227 C10.106,61.842 15.769,58.592 20.567,57.253 C22.290,56.720 23.911,56.472 25.399,56.488 C25.440,56.453 25.489,56.412 25.548,56.360 C27.582,54.808 29.328,52.978 31.105,50.549 C32.480,46.759 35.362,42.345 39.497,37.676 C39.497,37.676 36.558,36.777 36.558,36.777 C36.139,36.648 35.795,36.347 35.613,35.951 C35.431,35.553 35.428,35.098 35.604,34.698 C36.745,32.118 40.894,29.500 44.498,28.050 C47.310,26.943 49.543,26.522 51.149,26.779 C60.998,18.978 70.701,14.387 76.021,15.061 C77.640,15.265 78.885,15.917 79.726,16.998 C80.661,18.022 81.090,19.392 80.999,21.073 C80.770,25.366 76.923,31.757 70.876,38.325 zM52.474,29.641 C52.038,29.991 51.445,30.080 50.928,29.866 C50.316,29.618 48.564,29.738 45.638,30.889 C43.066,31.923 40.883,33.323 39.587,34.504 C39.587,34.504 42.712,35.459 42.712,35.459 C43.219,35.615 43.609,36.018 43.745,36.528 C43.880,37.038 43.743,37.583 43.381,37.968 C38.567,43.079 35.298,47.854 33.927,51.771 C33.878,51.912 33.809,52.042 33.723,52.163 C31.720,54.929 29.741,57.013 27.495,58.723 C27.256,58.936 26.866,59.249 26.395,59.446 C26.176,59.536 25.939,59.578 25.702,59.560 C24.467,59.477 23.039,59.689 21.437,60.186 C18.429,61.025 15.885,62.386 14.192,63.674 C18.370,63.202 22.701,62.838 22.941,62.817 C22.983,62.814 23.027,62.811 23.069,62.811 C23.503,62.811 23.919,62.995 24.213,63.321 C24.534,63.678 24.668,64.165 24.575,64.636 C24.575,64.636 22.963,72.818 22.963,72.818 C24.658,71.335 26.533,68.530 27.426,65.455 C28.101,63.088 28.056,61.970 27.899,61.450 C27.702,60.800 27.960,60.099 28.531,59.728 C30.681,58.333 32.888,57.336 34.587,56.992 C34.592,56.992 34.596,56.991 34.600,56.989 C34.789,56.916 35.066,56.822 35.439,56.850 C37.807,57.132 41.481,55.981 46.453,53.466 C46.920,53.232 47.472,53.247 47.928,53.513 C48.379,53.778 48.663,54.253 48.682,54.776 C48.682,54.776 48.815,58.426 48.815,58.426 C50.201,57.458 52.038,55.582 53.567,52.983 C54.870,51.020 55.384,49.331 55.442,48.459 C55.473,48.001 55.707,47.581 56.083,47.316 C57.692,46.172 59.353,44.858 60.961,43.586 C63.483,41.442 65.724,39.304 67.701,37.228 C67.701,37.228 57.272,26.027 57.272,26.027 C55.727,27.115 54.129,28.308 52.474,29.641 zM77.433,19.034 C77.392,18.990 77.352,18.944 77.317,18.896 C76.990,18.458 76.440,18.197 75.636,18.095 C72.736,17.726 67.080,19.597 59.838,24.286 C59.838,24.286 69.778,34.963 69.778,34.963 C74.983,29.028 77.777,23.836 77.933,20.910 C77.978,20.062 77.811,19.431 77.433,19.034 zM65.708,25.331 C65.822,23.613 67.313,22.313 69.037,22.427 C70.761,22.541 72.067,24.025 71.952,25.743 C71.838,27.460 70.348,28.760 68.623,28.646 C66.899,28.532 65.594,27.048 65.708,25.331 z"></path></svg>
