<svg xmlns="http://www.w3.org/2000/svg"  width="90" height="90" viewbox="0 0 90 90"><path d="M71.493,51.136 C71.493,51.305 71.485,51.472 71.475,51.638 C72.970,53.978 73.837,56.674 73.988,59.471 C73.990,67.836 67.292,74.572 59.060,74.572 C58.466,74.572 57.847,74.527 57.210,74.437 C56.172,74.964 55.081,75.424 53.957,75.812 C51.749,77.872 48.881,79.003 45.839,79.003 C42.983,79.003 40.309,78.004 38.083,76.111 C36.702,75.694 35.356,75.162 34.073,74.525 C33.685,74.554 33.298,74.572 32.911,74.572 C24.678,74.572 17.980,67.836 17.980,59.557 C17.980,57.117 18.545,54.787 19.660,52.626 C19.623,52.099 19.597,51.622 19.597,51.136 C19.597,45.042 21.737,39.122 25.630,34.434 C26.045,33.303 26.553,32.213 27.146,31.177 C25.335,27.287 23.898,23.452 24.776,19.478 C25.430,16.349 27.572,13.826 29.710,11.511 C30.108,11.079 30.711,10.905 31.279,11.069 C31.843,11.229 32.270,11.694 32.386,12.271 C32.457,12.629 32.528,12.952 32.599,13.274 C32.675,13.617 32.750,13.959 32.826,14.340 C32.826,14.340 32.863,14.530 32.863,14.530 C32.982,15.135 33.104,15.761 33.368,16.204 C33.769,16.805 34.456,17.374 35.183,17.977 C35.654,18.366 36.113,18.750 36.512,19.151 C37.242,19.885 37.838,20.793 38.251,21.777 C42.903,20.050 48.057,20.034 52.714,21.729 C53.126,20.763 53.715,19.871 54.429,19.152 C54.830,18.750 55.288,18.366 55.759,17.977 C56.487,17.374 57.174,16.805 57.613,16.140 C57.838,15.761 57.961,15.135 58.079,14.530 C58.079,14.530 58.116,14.340 58.116,14.340 C58.192,13.956 58.269,13.610 58.346,13.262 C58.416,12.945 58.486,12.626 58.557,12.271 C58.672,11.694 59.100,11.229 59.664,11.068 C60.230,10.912 60.834,11.079 61.233,11.511 C63.371,13.828 65.513,16.352 66.170,19.496 C67.038,23.423 65.576,27.334 63.863,31.033 C64.488,32.107 65.023,33.247 65.459,34.434 C69.352,39.122 71.493,45.042 71.493,51.136 zM60.681,30.456 C62.374,26.882 63.835,23.407 63.118,20.159 C62.810,18.685 61.985,17.302 60.963,15.986 C60.821,16.576 60.614,17.212 60.253,17.819 C59.516,18.933 58.575,19.712 57.745,20.400 C57.354,20.725 56.970,21.040 56.638,21.373 C55.931,22.084 55.422,23.079 55.245,24.102 C55.161,24.583 54.862,24.995 54.434,25.222 C54.005,25.450 53.498,25.464 53.057,25.261 C48.237,23.048 42.726,23.065 37.909,25.321 C37.466,25.527 36.952,25.516 36.519,25.285 C36.087,25.056 35.786,24.636 35.708,24.150 C35.542,23.127 35.017,22.090 34.304,21.373 C33.972,21.040 33.588,20.725 33.198,20.400 C32.368,19.712 31.426,18.933 30.729,17.883 C30.341,17.232 30.125,16.580 29.979,15.984 C28.958,17.297 28.135,18.678 27.828,20.142 C27.105,23.417 28.597,26.951 30.325,30.590 C30.557,31.077 30.524,31.650 30.236,32.106 C29.520,33.244 28.927,34.472 28.475,35.756 C28.412,35.938 28.316,36.105 28.191,36.252 C24.663,40.407 22.720,45.693 22.720,51.136 C22.720,51.680 22.761,52.213 22.800,52.746 C22.822,53.053 22.763,53.464 22.614,53.733 C21.612,55.539 21.104,57.498 21.104,59.557 C21.104,66.103 26.400,71.429 32.911,71.429 C33.350,71.429 33.790,71.402 34.231,71.360 C34.280,71.354 34.330,71.352 34.380,71.352 C34.629,71.352 34.875,71.412 35.096,71.528 C36.422,72.214 37.829,72.774 39.278,73.189 C39.505,73.254 39.714,73.371 39.890,73.529 C41.588,75.055 43.645,75.861 45.839,75.861 C48.180,75.861 50.379,74.958 52.032,73.316 C52.204,73.146 52.414,73.018 52.643,72.943 C53.890,72.532 55.091,72.019 56.215,71.419 C56.521,71.258 56.873,71.200 57.214,71.261 C57.860,71.373 58.481,71.429 59.060,71.429 C65.571,71.429 70.867,66.103 70.867,59.557 C70.740,57.240 69.956,54.930 68.601,52.964 C68.408,52.684 68.310,52.348 68.324,52.007 C68.324,52.007 68.347,51.595 68.347,51.595 C68.358,51.442 68.370,51.290 68.370,51.136 C68.370,45.693 66.426,40.407 62.899,36.252 C62.774,36.105 62.678,35.938 62.614,35.756 C62.142,34.417 61.524,33.147 60.778,31.982 C60.484,31.523 60.448,30.946 60.681,30.456 zM45.545,69.695 C37.831,69.695 31.790,65.372 31.790,59.852 C31.790,54.333 37.831,50.009 45.545,50.009 C53.257,50.009 59.299,54.333 59.299,59.852 C59.299,65.372 53.257,69.695 45.545,69.695 zM45.545,53.151 C39.782,53.151 34.913,56.220 34.913,59.852 C34.913,63.485 39.782,66.553 45.545,66.553 C51.308,66.553 56.176,63.485 56.176,59.852 C56.176,56.220 51.308,53.151 45.545,53.151 zM50.099,63.841 C49.125,63.841 48.336,62.121 48.336,60.000 C48.336,57.879 49.125,56.159 50.099,56.159 C51.072,56.159 51.861,57.879 51.861,60.000 C51.861,62.121 51.072,63.841 50.099,63.841 zM40.991,63.841 C40.017,63.841 39.228,62.121 39.228,60.000 C39.228,57.879 40.017,56.159 40.991,56.159 C41.964,56.159 42.753,57.879 42.753,60.000 C42.753,62.121 41.964,63.841 40.991,63.841 zM53.771,47.886 C52.311,47.886 51.127,46.696 51.127,45.227 C51.127,43.759 52.311,42.568 53.771,42.568 C55.232,42.568 56.416,43.759 56.416,45.227 C56.416,46.696 55.232,47.886 53.771,47.886 zM38.052,47.886 C36.592,47.886 35.408,46.696 35.408,45.227 C35.408,43.759 36.592,42.568 38.052,42.568 C39.513,42.568 40.697,43.759 40.697,45.227 C40.697,46.696 39.513,47.886 38.052,47.886 z"></path></svg>
