<svg xmlns="http://www.w3.org/2000/svg"  width="90" height="90" viewbox="0 0 90 90"><path d="M79.703,32.137 C79.703,32.137 77.324,34.488 77.324,34.488 L74.903,32.095 C74.903,32.095 77.281,29.744 77.281,29.744 C77.492,29.536 77.579,29.316 77.580,28.987 C77.580,28.674 77.493,28.456 77.279,28.245 C77.069,28.037 76.855,27.949 76.544,27.949 C76.224,27.923 75.975,28.032 75.763,28.242 C75.763,28.242 73.383,30.593 73.383,30.593 L70.962,28.198 C70.962,28.198 73.341,25.849 73.341,25.849 C74.189,25.009 75.290,24.564 76.524,24.564 C76.533,24.564 76.543,24.564 76.553,24.564 C77.756,24.564 78.847,25.009 79.700,25.850 C80.554,26.696 81.003,27.781 81.004,28.994 C80.998,30.217 80.548,31.300 79.703,32.137 zM69.447,26.701 L67.025,24.309 C67.025,24.309 69.403,21.957 69.403,21.957 C69.612,21.750 69.701,21.523 69.704,21.196 C69.703,20.887 69.616,20.669 69.405,20.459 C68.981,20.041 68.311,20.035 67.884,20.454 C67.884,20.454 65.506,22.804 65.506,22.804 L63.086,20.409 C63.086,20.409 65.464,18.060 65.464,18.060 C66.312,17.223 67.408,16.778 68.635,16.774 C69.874,16.775 70.974,17.223 71.825,18.066 C72.674,18.904 73.125,19.989 73.127,21.204 C73.120,22.432 72.669,23.516 71.824,24.350 C71.824,24.350 69.447,26.701 69.447,26.701 zM61.569,18.912 L59.148,16.517 C59.148,16.517 61.527,14.168 61.527,14.168 C61.736,13.961 61.822,13.742 61.822,13.415 C61.824,13.096 61.734,12.874 61.523,12.666 C61.106,12.252 60.430,12.247 60.008,12.666 C60.008,12.666 57.631,15.017 57.631,15.017 L55.209,12.625 C55.209,12.625 57.587,10.273 57.587,10.273 C58.431,9.438 59.527,8.991 60.755,8.985 C61.995,8.987 63.093,9.431 63.943,10.271 C64.801,11.120 65.252,12.210 65.246,13.424 C65.246,14.633 64.798,15.721 63.949,16.561 C63.949,16.561 61.569,18.912 61.569,18.912 zM76.708,38.742 C76.374,39.072 75.936,39.238 75.498,39.238 C75.060,39.238 74.622,39.072 74.288,38.742 C74.288,38.742 51.694,16.402 51.694,16.402 C51.025,15.741 51.025,14.668 51.694,14.008 C52.362,13.348 53.446,13.348 54.114,14.008 C54.114,14.008 76.708,36.348 76.708,36.348 C77.378,37.009 77.378,38.082 76.708,38.742 zM72.608,39.477 C73.734,40.165 74.957,41.072 75.941,42.313 C77.376,44.121 77.970,46.293 77.570,48.273 C76.987,51.164 74.449,53.417 70.425,54.617 C69.782,54.808 69.126,54.978 68.468,55.147 C66.527,55.645 64.692,56.116 63.340,57.192 C61.798,58.419 60.833,60.546 60.693,63.028 C60.586,64.908 61.271,67.128 62.750,67.545 C63.659,67.802 64.187,68.738 63.928,69.637 C63.714,70.381 63.027,70.867 62.282,70.867 C62.127,70.867 61.969,70.845 61.813,70.801 C58.419,69.847 57.088,66.115 57.274,62.838 C57.469,59.402 58.898,56.384 61.194,54.555 C63.119,53.023 65.401,52.437 67.607,51.871 C68.221,51.713 68.835,51.556 69.435,51.377 C70.720,50.992 73.759,49.859 74.213,47.610 C74.413,46.615 74.053,45.416 73.248,44.403 C72.523,43.490 71.489,42.698 69.890,41.832 C69.416,41.576 69.140,41.126 69.052,40.639 C69.052,40.639 47.373,19.204 47.373,19.204 C46.704,18.543 46.704,17.470 47.373,16.810 C48.041,16.150 49.125,16.150 49.793,16.810 C49.793,16.810 72.388,39.150 72.388,39.150 C72.486,39.246 72.539,39.366 72.608,39.477 zM52.662,30.719 C52.662,30.719 54.875,28.531 54.875,28.531 L57.296,30.924 C57.296,30.924 55.081,33.113 55.081,33.113 C54.228,33.955 53.130,34.401 51.903,34.401 C50.674,34.401 49.575,33.955 48.723,33.112 C47.872,32.271 47.421,31.184 47.421,29.969 C47.423,28.753 47.873,27.666 48.724,26.827 C48.724,26.827 50.937,24.639 50.937,24.639 L53.359,27.032 C53.359,27.032 51.144,29.221 51.144,29.221 C50.932,29.431 50.845,29.648 50.845,29.971 C50.845,30.291 50.933,30.509 51.145,30.719 C51.569,31.142 52.234,31.139 52.662,30.719 zM59.776,38.803 C60.106,38.802 60.326,38.718 60.539,38.508 C60.539,38.508 62.751,36.320 62.751,36.320 L65.173,38.713 C65.173,38.713 62.958,40.902 62.958,40.902 C62.107,41.744 61.007,42.188 59.779,42.188 C59.776,42.188 59.772,42.188 59.769,42.188 C58.549,42.188 57.452,41.742 56.601,40.901 C55.749,40.059 55.298,38.973 55.298,37.758 C55.300,36.544 55.750,35.457 56.599,34.616 C56.599,34.616 58.814,32.426 58.814,32.426 L61.235,34.819 C61.235,34.819 59.021,37.009 59.021,37.009 C58.809,37.219 58.722,37.436 58.722,37.760 C58.722,38.080 58.809,38.296 59.020,38.506 C59.234,38.718 59.487,38.764 59.776,38.803 zM49.418,23.137 C49.418,23.137 43.665,28.825 43.665,28.825 C43.137,30.361 44.069,37.564 44.669,38.812 C44.669,38.812 45.189,39.892 45.189,39.892 L44.337,40.742 C44.337,40.742 13.496,71.235 13.496,71.235 C12.757,71.966 12.398,72.848 12.400,73.930 C12.400,75.008 12.739,75.850 13.468,76.589 C14.183,77.279 15.037,77.614 16.124,77.614 C17.225,77.626 18.113,77.262 18.853,76.531 C18.853,76.531 50.554,45.189 50.554,45.189 C50.554,45.189 51.648,45.712 51.648,45.712 C52.920,46.275 59.575,46.547 60.897,45.942 C60.897,45.942 66.691,40.215 66.691,40.215 L69.112,42.608 C69.112,42.608 63.237,48.416 63.237,48.416 C61.462,50.173 54.522,49.786 51.411,49.128 C51.411,49.128 21.274,78.926 21.274,78.926 C19.881,80.302 18.153,80.999 16.138,81.000 C16.132,81.000 16.126,81.000 16.121,81.000 C14.141,81.000 12.433,80.321 11.046,78.982 C9.663,77.581 8.976,75.892 8.976,73.933 C8.973,71.935 9.679,70.221 11.076,68.840 C11.076,68.840 41.192,39.064 41.192,39.064 C40.381,35.939 39.228,28.424 41.124,26.550 C41.124,26.550 46.997,20.744 46.997,20.744 L49.418,23.137 z"></path></svg>
