<svg xmlns="http://www.w3.org/2000/svg"  width="90" height="90" viewbox="0 0 90 90"><path d="M61.039,71.997 C61.039,71.997 29.986,71.997 29.986,71.997 C17.864,71.997 8.002,62.125 8.002,49.992 C8.002,46.228 8.954,42.684 10.625,39.583 C10.632,39.572 10.634,39.559 10.642,39.548 C14.363,32.670 21.638,27.987 29.986,27.987 C29.986,27.987 61.039,27.987 61.039,27.987 C73.161,27.987 83.022,37.859 83.022,49.992 C83.022,62.125 73.161,71.997 61.039,71.997 zM53.352,68.888 C53.352,68.888 53.815,68.888 53.815,68.888 C46.311,65.891 40.988,58.558 40.988,49.992 C40.988,46.756 41.766,43.706 43.115,40.987 C42.436,40.620 41.173,40.074 39.616,40.074 C38.037,40.074 36.419,40.776 35.487,41.261 C33.920,43.906 33.012,46.889 33.012,49.992 C33.012,60.058 42.516,68.888 53.352,68.888 zM41.669,68.888 C41.669,68.888 41.753,68.888 41.753,68.888 C34.797,64.975 29.907,57.813 29.907,49.992 C29.907,46.713 30.789,43.557 32.297,40.697 C31.578,40.386 30.566,40.074 29.394,40.074 C27.006,40.074 24.495,41.691 24.470,41.709 C24.206,41.883 23.909,41.967 23.615,41.967 C23.555,41.967 23.497,41.952 23.437,41.945 C22.107,44.419 21.329,47.151 21.329,49.992 C21.329,60.058 30.833,68.888 41.669,68.888 zM11.107,49.992 C11.107,60.412 19.576,68.888 29.986,68.888 C29.986,68.888 30.070,68.888 30.070,68.888 C23.114,64.975 18.224,57.813 18.224,49.992 C18.224,46.713 19.106,43.557 20.615,40.697 C19.896,40.386 18.883,40.074 17.711,40.074 C15.842,40.074 13.914,41.057 13.146,41.496 C11.852,44.053 11.107,46.934 11.107,49.992 zM29.986,31.096 C24.555,31.096 19.666,33.417 16.218,37.104 C16.706,37.023 17.204,36.965 17.711,36.965 C19.619,36.965 21.194,37.527 22.245,38.035 C24.273,35.222 26.967,32.841 30.070,31.096 C30.070,31.096 29.986,31.096 29.986,31.096 zM41.669,31.096 C35.983,31.096 30.680,33.540 26.908,37.305 C27.693,37.103 28.536,36.965 29.394,36.965 C31.301,36.965 32.877,37.527 33.928,38.035 C35.955,35.222 38.650,32.841 41.753,31.096 C41.753,31.096 41.669,31.096 41.669,31.096 zM53.352,31.096 C47.810,31.096 42.625,33.414 38.873,37.019 C39.120,36.997 39.366,36.965 39.616,36.965 C41.891,36.965 43.702,37.760 44.696,38.313 C46.956,35.099 50.118,32.572 53.815,31.096 C53.815,31.096 53.352,31.096 53.352,31.096 zM61.320,32.750 C51.821,32.750 44.093,40.484 44.093,49.992 C44.093,59.500 51.821,67.234 61.320,67.234 C70.818,67.234 78.546,59.500 78.546,49.992 C78.546,40.484 70.818,32.750 61.320,32.750 zM69.207,42.876 C67.848,42.876 66.746,41.773 66.746,40.413 C66.746,39.052 67.848,37.949 69.207,37.949 C70.566,37.949 71.668,39.052 71.668,40.413 C71.668,41.773 70.566,42.876 69.207,42.876 zM70.056,53.324 C70.056,54.685 68.954,55.788 67.595,55.788 C66.235,55.788 65.133,54.685 65.133,53.324 C65.133,51.964 66.235,50.861 67.595,50.861 C68.954,50.861 70.056,51.964 70.056,53.324 zM60.799,63.711 C58.730,63.711 57.053,62.032 57.053,59.962 C57.053,57.891 58.730,56.212 60.799,56.212 C62.868,56.212 64.545,57.891 64.545,59.962 C64.545,62.032 62.868,63.711 60.799,63.711 zM57.574,47.571 C55.505,47.571 53.828,45.892 53.828,43.822 C53.828,41.751 55.505,40.073 57.574,40.073 C59.643,40.073 61.320,41.751 61.320,43.822 C61.320,45.892 59.643,47.571 57.574,47.571 zM49.857,55.788 C48.497,55.788 47.396,54.685 47.396,53.324 C47.396,51.964 48.497,50.861 49.857,50.861 C51.216,50.861 52.318,51.964 52.318,53.324 C52.318,54.685 51.216,55.788 49.857,55.788 z"></path></svg>
