<svg xmlns="http://www.w3.org/2000/svg"  width="90" height="90" viewbox="0 0 90 90"><path d="M53.266,41.659 C53.266,43.664 51.654,45.289 49.665,45.289 C47.676,45.289 46.064,43.664 46.064,41.659 C46.064,39.654 47.676,38.029 49.665,38.029 C51.654,38.029 53.266,39.654 53.266,41.659 zM60.072,54.022 C59.354,55.048 58.541,56.004 57.637,56.869 C58.013,57.425 58.352,58.008 58.634,58.627 C60.814,63.423 59.660,68.502 56.006,70.191 C55.255,70.539 54.450,70.706 53.627,70.706 C52.475,70.706 51.289,70.373 50.161,69.752 C50.161,69.752 50.161,76.338 50.161,76.338 C50.161,77.254 49.424,77.998 48.515,77.998 C47.606,77.998 46.869,77.254 46.869,76.338 C46.869,76.338 46.869,59.963 46.869,59.963 C46.869,59.184 47.407,58.508 48.162,58.342 C55.145,56.796 60.213,50.440 60.213,43.230 C60.213,34.694 53.323,27.750 44.855,27.750 C36.387,27.750 29.497,34.694 29.497,43.230 C29.497,43.325 29.489,43.421 29.473,43.514 C29.473,43.514 23.779,76.622 23.779,76.622 C23.640,77.428 22.945,77.998 22.159,77.998 C22.065,77.998 21.971,77.989 21.876,77.974 C20.980,77.817 20.380,76.957 20.535,76.054 C20.535,76.054 26.016,44.184 26.016,44.184 C21.110,42.836 15.998,36.410 15.998,28.626 C15.998,19.633 23.256,12.316 32.178,12.316 C35.545,12.316 38.806,13.379 41.535,15.340 C43.306,13.231 45.923,11.978 48.728,11.978 C52.360,11.978 55.618,14.089 57.178,17.288 C58.014,17.045 58.878,16.922 59.762,16.922 C64.959,16.922 69.186,21.183 69.186,26.422 C69.186,30.912 66.076,34.677 61.915,35.663 C62.845,37.784 63.385,40.109 63.472,42.552 C70.462,45.166 72.973,51.139 73.081,51.405 C73.081,51.405 73.984,53.626 73.984,53.626 C73.984,53.626 60.072,54.022 60.072,54.022 zM55.641,60.010 C55.470,59.634 55.267,59.278 55.048,58.934 C53.556,59.925 51.921,60.719 50.161,61.246 C50.161,61.246 50.161,65.583 50.161,65.583 C51.602,67.123 53.348,67.770 54.634,67.174 C56.543,66.291 57.005,63.010 55.641,60.010 zM65.893,26.422 C65.893,23.014 63.143,20.243 59.762,20.243 C58.791,20.243 57.855,20.470 56.980,20.921 C56.536,21.148 56.017,21.160 55.562,20.959 C55.109,20.755 54.770,20.357 54.641,19.872 C53.923,17.180 51.492,15.298 48.728,15.298 C46.476,15.298 44.409,16.539 43.334,18.538 C43.094,18.985 42.663,19.296 42.167,19.383 C41.671,19.464 41.161,19.320 40.786,18.980 C38.408,16.824 35.352,15.637 32.178,15.637 C25.072,15.637 19.291,21.464 19.291,28.626 C19.291,34.889 23.321,39.548 26.376,40.794 C27.566,31.577 35.392,24.429 44.855,24.429 C51.208,24.429 56.823,27.653 60.192,32.559 C63.369,32.331 65.893,29.682 65.893,26.422 zM63.281,46.067 C63.036,47.659 62.594,49.198 61.969,50.648 C61.969,50.648 68.712,50.455 68.712,50.455 C67.664,49.047 65.915,47.278 63.281,46.067 z"></path></svg>
