<svg xmlns="http://www.w3.org/2000/svg"  width="90" height="90" viewbox="0 0 90 90"><path d="M78.130,39.891 C78.130,39.891 78.129,39.891 78.129,39.891 C77.427,39.181 76.606,38.584 75.683,38.112 C74.625,36.410 73.287,34.916 71.698,33.668 C70.290,32.562 68.745,31.696 67.097,31.087 C66.650,27.103 64.882,23.290 62.033,20.184 C62.140,17.445 61.144,14.822 59.236,12.890 C55.561,9.171 49.643,9.071 45.847,12.590 C45.093,12.526 44.409,12.496 43.740,12.496 C40.761,12.496 37.860,12.980 35.106,13.937 C31.595,12.632 27.579,13.495 24.922,16.184 C22.677,18.458 21.704,21.637 22.255,24.800 C21.379,26.539 20.790,28.356 20.492,30.230 C17.124,29.179 13.398,30.046 10.817,32.658 C8.988,34.511 7.980,36.973 7.980,39.592 C7.980,42.212 8.988,44.674 10.816,46.524 C11.105,46.817 11.416,47.091 11.756,47.352 C12.044,51.036 13.710,54.308 16.405,56.425 C18.527,58.092 21.101,58.955 23.846,58.955 C24.769,58.955 25.712,58.858 26.663,58.661 C28.169,58.348 29.620,57.785 30.983,57.024 C35.521,62.158 36.507,65.164 36.507,66.792 C36.507,74.648 36.137,78.147 36.134,78.180 C36.083,78.648 36.231,79.115 36.540,79.463 C36.850,79.814 37.291,80.014 37.755,80.014 C37.755,80.014 51.455,80.014 51.455,80.014 C52.356,80.014 53.086,79.274 53.086,78.362 C53.086,78.362 53.086,66.792 53.086,66.792 C53.086,62.619 54.597,59.087 57.546,56.276 C62.391,59.038 68.190,59.192 72.460,56.521 C74.622,56.256 76.621,55.285 78.130,53.759 C81.906,49.935 81.906,43.715 78.130,39.891 zM33.678,55.138 C34.557,54.384 35.380,53.543 36.113,52.600 C37.321,52.965 38.558,53.226 39.808,53.412 C41.078,56.862 43.045,62.934 43.045,67.463 C43.045,67.463 43.045,69.115 43.045,69.115 L43.045,76.711 C43.045,76.711 39.518,76.711 39.518,76.711 C39.632,74.895 39.770,71.673 39.770,66.792 C39.770,63.648 37.756,59.819 33.678,55.138 zM43.380,53.690 C44.256,53.702 45.132,53.675 46.005,53.600 C45.546,54.914 45.092,56.332 44.677,57.792 C44.270,56.362 43.827,54.974 43.380,53.690 zM49.824,66.792 C49.824,66.792 49.824,76.711 49.824,76.711 L46.307,76.711 L46.307,69.115 C46.307,69.115 46.307,67.463 46.307,67.463 C46.307,62.793 48.394,56.485 49.689,53.016 C50.706,52.782 51.712,52.507 52.691,52.151 C53.340,52.953 54.072,53.672 54.845,54.341 C51.568,57.695 49.824,61.966 49.824,66.792 zM75.823,51.423 C74.751,52.509 73.353,53.148 71.782,53.272 C71.782,53.272 71.357,53.305 71.357,53.305 C71.357,53.305 71.003,53.545 71.003,53.545 C67.230,56.095 61.655,55.567 57.446,52.262 C56.353,51.403 55.390,50.378 54.583,49.215 C54.583,49.215 53.832,48.130 53.832,48.130 C53.832,48.130 52.623,48.639 52.623,48.639 C50.917,49.355 49.121,49.831 47.296,50.112 C47.296,50.112 47.289,50.110 47.289,50.110 C47.289,50.110 47.288,50.114 47.288,50.114 C45.591,50.375 43.870,50.468 42.158,50.354 C42.158,50.354 42.148,50.325 42.148,50.325 C42.148,50.325 42.092,50.346 42.092,50.346 C40.024,50.203 37.975,49.792 36.022,49.101 C36.022,49.101 34.809,48.722 34.809,48.722 C34.809,48.722 34.105,49.775 34.105,49.775 C33.949,50.008 33.794,50.242 33.618,50.471 C31.635,53.058 28.932,54.818 26.007,55.426 C23.177,56.017 20.476,55.444 18.405,53.817 C16.254,52.127 15.037,49.503 14.976,46.429 C14.976,46.429 14.959,45.546 14.959,45.546 C14.959,45.546 14.224,45.071 14.224,45.071 C13.793,44.792 13.435,44.505 13.124,44.190 C11.911,42.963 11.242,41.329 11.242,39.592 C11.242,37.856 11.911,36.222 13.124,34.994 C14.358,33.744 15.989,33.098 17.640,33.098 C18.791,33.098 19.952,33.412 20.996,34.056 C20.996,34.056 21.797,34.487 21.797,34.487 L23.504,33.689 C23.504,33.689 23.534,32.667 23.534,32.667 C23.604,30.289 24.232,27.992 25.401,25.840 C25.401,25.840 25.706,25.279 25.706,25.279 C25.706,25.279 25.556,24.656 25.556,24.656 C25.020,22.418 25.645,20.123 27.229,18.520 C29.122,16.603 31.935,16.086 34.399,17.210 C34.399,17.210 35.009,17.487 35.009,17.487 C35.009,17.487 35.636,17.251 35.636,17.251 C38.204,16.286 40.931,15.798 43.740,15.798 C44.522,15.798 45.338,15.846 46.310,15.952 C46.310,15.952 47.131,16.042 47.131,16.042 L47.688,15.428 C47.688,15.428 47.843,15.226 47.843,15.226 C50.349,12.690 54.424,12.690 56.930,15.226 C58.312,16.624 58.968,18.584 58.730,20.600 C58.730,20.600 58.636,21.395 58.636,21.395 C58.636,21.395 59.196,21.962 59.196,21.962 C62.108,24.913 63.745,28.520 63.930,32.394 C63.930,32.394 63.986,33.569 63.986,33.569 C63.986,33.569 65.104,33.899 65.104,33.899 C66.766,34.389 68.313,35.188 69.699,36.277 C71.094,37.373 72.251,38.704 73.137,40.228 C73.137,40.228 73.403,40.685 73.403,40.685 C73.403,40.685 73.881,40.900 73.881,40.900 C74.634,41.238 75.287,41.684 75.823,42.227 C78.327,44.763 78.327,48.889 75.823,51.423 z"></path></svg>
